<svg width="241" height="46" viewBox="0 0 241 46" fill="none" xmlns="http://www.w3.org/2000/svg">
<path d="M24.726 45.9036C24.0772 45.2059 23.4915 44.4797 22.8111 43.8568C21.1978 42.3795 19.2934 41.3756 17.3049 40.5355C15.3409 39.7097 13.3208 39.0227 11.3708 38.1612C6.51697 36.0218 2.96075 32.5261 1.12652 27.4428C0.600449 25.9868 0.365471 24.3778 0.249736 22.8222C0.0568441 20.1916 0.0603513 17.5467 0.000730093 14.9089C-0.0203127 14.0332 0.414571 13.8196 1.1686 14.2361C2.85904 15.1723 3.48681 16.7386 3.68672 18.5612C3.8235 19.8214 3.92871 21.0851 4.069 22.3452C4.24786 23.9827 4.89317 25.4102 5.9909 26.6205C8.02854 28.8667 10.3713 30.6928 13.1805 31.8426C13.675 32.0455 14.2151 32.163 14.7447 32.2378C16.102 32.43 17.0033 31.4012 16.5719 30.0806C16.3264 29.3294 15.895 28.6317 15.5022 27.9376C15.1164 27.2541 14.657 26.6169 14.2572 25.9441C14.1099 25.6985 13.9977 25.4208 13.931 25.1396C13.7837 24.5131 14.1555 24.0219 14.7903 23.9471C15.4987 23.8652 16.1335 24.1144 16.7157 24.4668C21.0365 27.0904 23.9649 30.675 24.5997 35.947C24.989 39.1828 25.0627 42.408 24.7681 45.6438C24.761 45.7399 24.733 45.8325 24.7225 45.9036H24.726Z" fill="#FFFDFA"/>
<path d="M28.0648 45.9997C28.0227 45.5726 27.9806 45.2237 27.9561 44.8713C27.6825 41.2475 27.7877 37.6521 28.5628 34.0817C29.2397 30.9598 30.8459 28.4679 33.2939 26.5172C34.2584 25.7483 35.2684 25.0257 36.31 24.3671C36.7309 24.1001 37.292 23.9898 37.7971 23.9435C38.6353 23.8723 39.1298 24.5451 38.7826 25.3211C38.4248 26.1256 37.9128 26.8589 37.4779 27.6314C37.0676 28.3576 36.5871 29.0589 36.289 29.8313C35.6998 31.3478 36.6116 32.4513 38.2004 32.2199C39.7084 31.9992 41.0061 31.2624 42.2686 30.4578C44.0397 29.333 45.625 27.9874 46.9998 26.3784C48.122 25.0648 48.6236 23.5235 48.8059 21.8326C48.9637 20.3695 49.083 18.8993 49.3215 17.447C49.56 15.9946 50.3982 14.9231 51.6712 14.2076C52.3551 13.8231 52.7865 14.0652 52.797 14.8555C52.8321 18.0308 52.7795 21.1954 52.4007 24.3564C52.0149 27.6065 50.6226 30.3653 48.5885 32.8322C46.1089 35.8402 42.9245 37.7447 39.3051 39.0048C36.6853 39.9161 34.1181 40.9769 31.7648 42.4934C30.397 43.3762 29.18 44.4228 28.2577 45.7933C28.2226 45.8431 28.1735 45.8858 28.0683 45.9962L28.0648 45.9997Z" fill="#FFFDFA"/>
<path d="M44.6046 27.1332C44.8045 25.364 44.3556 23.6624 44.082 21.9431C43.9137 20.8894 43.8155 19.8357 44.1241 18.7856C44.3626 17.9704 44.8396 17.3154 45.4463 16.7529C45.818 16.4076 46.309 16.4931 46.4283 16.9452C46.8141 18.4153 47.2454 19.882 47.4839 21.3806C47.7785 23.2424 47.0035 24.7909 45.7584 26.1222C45.4147 26.4924 45.0851 26.8769 44.7484 27.2542C44.6993 27.2151 44.6537 27.1759 44.6046 27.1367V27.1332Z" fill="#FFFDFA"/>
<path d="M8.11623 27.2718C7.51651 26.6061 6.95537 26.0365 6.45385 25.4136C5.28247 23.9541 5.01593 22.2739 5.42626 20.4762C5.67878 19.362 5.99442 18.2585 6.29603 17.155C6.48191 16.4679 6.93433 16.3505 7.44637 16.8382C8.68088 18.0235 9.0351 19.5044 8.80713 21.1561C8.63178 22.427 8.38628 23.6871 8.22495 24.9579C8.13376 25.6806 8.1513 26.4174 8.11272 27.2718H8.11623Z" fill="#FFFDFA"/>
<path d="M31.3755 22.8509C28.7838 22.8509 27.0583 21.9717 26.4024 21.5659C25.7466 21.9681 24.0211 22.8509 21.4293 22.8509C17.9573 22.8509 14.5659 21.6121 10.4345 18.8355C10.2907 18.7394 10.21 18.5721 10.217 18.3977C10.224 18.2233 10.3258 18.0666 10.4766 17.9848C11.5042 17.4401 12.6159 16.9346 13.7171 16.5075C13.0929 15.7528 12.5107 14.9234 11.9881 14.0299C11.8514 13.7949 11.925 13.4923 12.1565 13.3535C12.3879 13.2147 12.6861 13.2894 12.8228 13.5244C13.8083 15.2081 15.0183 16.6676 16.3194 17.7463C18.2799 19.3695 21.1452 20.2559 25.0557 20.4445C23.6984 19.1915 22.6814 17.9954 21.9589 16.81C21.8186 16.5787 21.8888 16.2761 22.1167 16.1301C22.3447 15.9877 22.6463 16.0589 22.7866 16.2903C23.488 17.4437 24.5016 18.6148 25.8728 19.8607C25.7887 18.565 25.5747 17.4437 25.2275 16.4576C24.698 14.9554 23.8598 13.7451 22.6603 12.7519C22.3096 12.4636 21.9414 12.1859 21.5521 11.9225C21.5521 12.0079 21.5521 12.0969 21.5521 12.1824C21.5521 12.8979 21.6643 13.6169 21.8852 14.3182C21.9659 14.5781 21.8256 14.8557 21.5696 14.9376C21.3136 15.0195 21.04 14.8771 20.9594 14.6172C20.7104 13.8163 20.5806 12.9975 20.5806 12.1824C20.5806 11.9011 20.5911 11.6164 20.6122 11.3245C17.5224 9.49831 13.6435 8.38766 10.8413 8.1634C10.9816 9.23845 11.3498 10.4808 11.904 11.7267C12.0127 11.9759 11.904 12.2678 11.662 12.3781C11.4165 12.4885 11.1289 12.3781 11.0202 12.1325C10.3117 10.5342 9.89438 8.98926 9.82073 7.66503C9.81371 7.5262 9.86281 7.39093 9.95751 7.29126C10.0522 7.19159 10.1855 7.13819 10.3222 7.14531C12.0933 7.21651 14.1731 7.62588 16.2493 8.30935C16.2879 6.43692 16.6281 4.6784 17.2243 3.30434C17.3295 3.06228 17.603 2.94836 17.845 3.04448C19.2409 3.58912 20.7805 4.47194 22.2184 5.5541C22.2289 5.53274 22.2395 5.51139 22.2465 5.49359C23.2565 3.3613 24.6208 1.45683 26.0798 0.125481C26.2656 -0.0418271 26.5427 -0.0418271 26.7286 0.125481C27.0267 0.399582 27.3283 0.702161 27.6229 1.0261C27.8053 1.229 27.7912 1.5387 27.5913 1.72381C27.3914 1.90892 27.0863 1.89468 26.9039 1.69177C26.7391 1.50666 26.5708 1.33224 26.4024 1.16849C25.1574 2.3966 24 4.06613 23.1198 5.92432C22.3307 7.58672 21.8256 9.25268 21.6362 10.8119C22.2289 11.1892 22.7796 11.5879 23.2776 11.9973C25.0382 13.4532 25.9465 15.2544 26.4129 17.0094C26.9706 14.9162 28.0052 13.261 29.5308 11.9973C29.7377 11.8264 30.0463 11.8549 30.2147 12.0684C30.383 12.2785 30.355 12.5917 30.1445 12.7626C28.2156 14.3609 27.16 16.6926 26.9355 19.8643C29.8429 17.2087 31.2598 14.6884 31.2598 12.1895C31.2598 9.50543 30.0849 6.11654 28.1946 3.3435C28.0403 3.11923 28.0964 2.81309 28.3173 2.65646C28.5383 2.49984 28.8399 2.55679 28.9942 2.78106C29.6009 3.67099 30.134 4.60721 30.5864 5.56478C32.0279 4.47906 33.571 3.59268 34.9738 3.04804C35.2158 2.95548 35.4894 3.0694 35.5946 3.3079C36.1908 4.68552 36.531 6.4476 36.5696 8.32715C38.6213 7.64724 40.7115 7.22007 42.4966 7.14887C42.6334 7.14531 42.7667 7.19871 42.8614 7.29482C42.9561 7.39449 43.0087 7.52976 42.9982 7.66859C42.9035 9.34168 42.2862 11.3316 41.2656 13.2752C40.6449 14.4535 39.9154 15.5463 39.1052 16.5146C40.2065 16.9417 41.3112 17.4437 42.3388 17.9883C42.4896 18.0702 42.5913 18.2268 42.5983 18.4012C42.6089 18.5757 42.5247 18.743 42.3809 18.8391C41.704 19.2947 41.0727 19.6899 40.452 20.0565C40.2205 20.1918 39.9224 20.1135 39.7891 19.875C39.6559 19.64 39.733 19.3375 39.968 19.2022C40.3503 18.9779 40.7396 18.7394 41.1394 18.4831C40.2521 18.0488 39.3227 17.6466 38.4073 17.3048C37.99 17.7427 37.5586 18.1485 37.1097 18.5187C34.6021 20.5941 31.2493 21.2241 28.4295 21.4057C29.1906 21.6549 30.1866 21.8684 31.3896 21.8684C33.5535 21.8684 35.7384 21.3274 38.0636 20.2167C38.3056 20.0992 38.5967 20.206 38.7089 20.4517C38.8212 20.6973 38.7195 20.9927 38.4775 21.1067C36.019 22.2814 33.7008 22.8509 31.3896 22.8509H31.3755ZM11.6795 18.4796C15.3234 20.8148 18.3571 21.8649 21.4293 21.8649C22.6393 21.8649 23.6423 21.6513 24.4034 21.3986C20.5841 21.1387 17.7293 20.1882 15.7092 18.5152C15.2673 18.1485 14.8359 17.7427 14.4186 17.2977C13.4997 17.6395 12.5668 18.0417 11.6795 18.476V18.4796ZM32.1962 11.3387C32.2172 11.627 32.2278 11.9083 32.2278 12.1859C32.2278 14.934 30.7583 17.6466 27.7386 20.4517C31.6912 20.2701 34.4899 19.4015 36.4819 17.7534C39.6488 15.1298 41.6023 11.0041 41.9671 8.17052C38.9124 8.41258 35.0861 9.64782 32.1962 11.3423V11.3387ZM30.9862 6.48676C31.5088 7.76115 31.8771 9.04622 32.0735 10.2779C33.1607 9.66917 34.3566 9.12453 35.5911 8.66533C35.5911 6.99224 35.3421 5.41883 34.8756 4.148C33.6201 4.69264 32.2593 5.50783 30.9897 6.48676H30.9862ZM17.2138 8.65109C18.4798 9.12097 19.6652 9.66562 20.7279 10.2672C20.9173 9.0391 21.2785 7.76471 21.8046 6.47964C20.535 5.50783 19.1813 4.69264 17.9292 4.15156C17.4628 5.41883 17.2138 6.98868 17.2138 8.65465V8.65109Z" fill="#E8C553"/>
<path d="M65.9507 13.9653H72.9965C73.9154 13.9653 74.729 14.1255 75.434 14.4459C76.1389 14.7663 76.7351 15.1828 77.2156 15.6954C77.6961 16.208 78.0608 16.7847 78.3133 17.4254C78.5658 18.0662 78.6886 18.7069 78.6886 19.3548C78.6886 20.0383 78.5623 20.7039 78.3133 21.3554C78.0643 22.0068 77.696 22.587 77.2086 23.0925C76.7211 23.598 76.1284 24.0038 75.4234 24.31C74.7185 24.6161 73.9084 24.7692 73 24.7692H68.9668V32.0346H65.9542V13.9653H65.9507ZM68.9633 22.2026H72.3582C72.979 22.2026 73.5015 22.1278 73.9224 21.9748C74.3432 21.8217 74.6834 21.6188 74.943 21.3589C75.2025 21.0991 75.3884 20.7965 75.5041 20.4441C75.6198 20.0917 75.6759 19.7179 75.6759 19.3121C75.6759 18.9063 75.6023 18.5467 75.4585 18.205C75.3147 17.8633 75.1008 17.5714 74.8202 17.3257C74.5396 17.0801 74.1924 16.8879 73.7786 16.7491C73.3647 16.6102 72.8913 16.5426 72.3547 16.5426H68.9598V22.2026H68.9633Z" fill="#FFFDFA"/>
<path d="M95.4314 19.2622C95.4314 20.0561 95.228 20.8001 94.8247 21.4978C94.4214 22.1955 93.8041 22.7935 92.98 23.3061C93.3728 23.445 93.7059 23.6443 93.9865 23.9006C94.2671 24.1569 94.4986 24.4524 94.6739 24.7763C94.8493 25.1002 94.986 25.4455 95.0702 25.8122C95.1544 26.1788 95.1965 26.5455 95.1965 26.905V29.5214C95.1965 29.8489 95.2736 30.2334 95.4314 30.6748C95.5893 31.1162 95.8032 31.5683 96.0768 32.0346H92.7836C92.6573 31.8282 92.5521 31.611 92.4714 31.3868C92.3908 31.1625 92.3311 30.9418 92.2926 30.7246C92.254 30.5075 92.2294 30.3046 92.2154 30.1159C92.2014 29.9273 92.1979 29.7564 92.1979 29.6104V26.8659C92.1979 26.5989 92.1523 26.3319 92.0646 26.0614C91.9769 25.7908 91.8331 25.5523 91.6367 25.3423C91.4403 25.1323 91.1808 24.9578 90.8582 24.8226C90.5355 24.6873 90.1427 24.6232 89.6833 24.6232H85.1415V32.0311H82.1289V13.9653H89.6833C90.6021 13.9653 91.4193 14.122 92.1347 14.4317C92.8502 14.7414 93.4499 15.1472 93.9409 15.6491C94.4319 16.151 94.8002 16.717 95.0527 17.3471C95.3052 17.9772 95.4279 18.6179 95.4279 19.2658L95.4314 19.2622ZM85.145 22.0602H89.6868C90.0515 22.0602 90.3987 21.9926 90.7284 21.8609C91.0546 21.7256 91.3456 21.5405 91.5946 21.3055C91.8436 21.0706 92.0436 20.7823 92.1873 20.4441C92.3311 20.1059 92.4048 19.7357 92.4048 19.3299C92.4048 18.9241 92.3382 18.5645 92.2014 18.2228C92.0646 17.8811 91.8752 17.5892 91.6332 17.3435C91.3912 17.0979 91.1036 16.9021 90.7705 16.7597C90.4373 16.6173 90.0761 16.5462 89.6868 16.5462H85.145V22.0638V22.0602Z" fill="#FFFDFA"/>
<path d="M108.653 13.9655L115.163 32.0348H112.01L110.095 26.7485H103.687C103.382 27.6207 103.063 28.4999 102.737 29.3899C102.411 30.2798 102.092 31.1591 101.786 32.0312H98.6721L105.181 13.9619H108.653V13.9655ZM106.893 17.7602L104.62 24.1855H109.151L106.893 17.7602Z" fill="#FFFDFA"/>
<path d="M120.483 25.7126C120.525 26.3355 120.651 26.9015 120.858 27.4177C121.065 27.9339 121.342 28.3753 121.683 28.7455C122.023 29.1157 122.423 29.4041 122.882 29.607C123.341 29.8099 123.846 29.9131 124.401 29.9131C124.885 29.9131 125.351 29.8597 125.796 29.7565C126.242 29.6532 126.638 29.4859 126.978 29.251C127.319 29.0196 127.592 28.7135 127.795 28.3361C127.999 27.9588 128.101 27.4996 128.101 26.9549C128.101 26.4637 127.953 26.0508 127.659 25.7162C127.364 25.3815 126.982 25.0932 126.505 24.8405C126.028 24.5877 125.484 24.367 124.871 24.1677C124.257 23.9683 123.636 23.7618 123.001 23.5447C122.366 23.3276 121.746 23.0855 121.132 22.8114C120.518 22.5373 119.975 22.2062 119.498 21.8147C119.021 21.4231 118.635 20.9496 118.344 20.3979C118.053 19.8461 117.902 19.1804 117.902 18.4044C117.902 17.6284 118.056 16.9093 118.361 16.3006C118.666 15.6919 119.098 15.1793 119.655 14.7664C120.213 14.3534 120.876 14.0402 121.647 13.8266C122.419 13.613 123.261 13.5098 124.18 13.5098C125.404 13.5098 126.424 13.6913 127.238 14.0544C128.052 14.4175 128.704 14.8838 129.198 15.4605C129.693 16.0336 130.051 16.6708 130.272 17.3721C130.492 18.0734 130.626 18.7568 130.668 19.4332H127.592C127.539 18.853 127.42 18.3546 127.227 17.931C127.034 17.5074 126.785 17.1585 126.48 16.8809C126.175 16.6032 125.824 16.4003 125.435 16.265C125.046 16.1297 124.629 16.0657 124.183 16.0657C123.783 16.0657 123.387 16.1084 122.998 16.1903C122.608 16.2721 122.258 16.4074 121.953 16.5925C121.648 16.7776 121.398 17.0197 121.213 17.3187C121.027 17.6177 120.932 17.9808 120.932 18.4115C120.932 18.9135 121.079 19.3335 121.374 19.6753C121.669 20.017 122.051 20.316 122.528 20.5688C123.005 20.8251 123.548 21.0529 124.162 21.2558C124.776 21.4587 125.4 21.6687 126.038 21.8894C126.677 22.1101 127.301 22.3522 127.915 22.6227C128.528 22.8933 129.072 23.2172 129.549 23.6088C130.026 24.0004 130.412 24.4631 130.703 25.0078C130.994 25.5524 131.145 26.2038 131.145 26.9621C131.145 27.8876 130.976 28.6921 130.64 29.3827C130.303 30.0733 129.837 30.6464 129.237 31.1056C128.637 31.5648 127.925 31.9101 127.105 32.1415C126.284 32.3729 125.383 32.4904 124.404 32.4904C123.527 32.4904 122.679 32.3337 121.851 32.024C121.023 31.7143 120.287 31.2658 119.638 30.6784C118.986 30.0911 118.46 29.3827 118.056 28.5462C117.653 27.7096 117.439 26.7698 117.411 25.7162H120.487L120.483 25.7126Z" fill="#FFFDFA"/>
<path d="M143.353 13.9655L149.862 32.0348H146.709L144.795 26.7485H138.387C138.082 27.6207 137.763 28.4999 137.437 29.3899C137.11 30.2798 136.791 31.1591 136.486 32.0312H133.372L139.881 13.9619H143.353V13.9655ZM141.593 17.7602L139.32 24.1855H143.851L141.593 17.7602Z" fill="#FFFDFA"/>
<path d="M156.691 13.9653L164.336 27.7095V13.9653H167.349V32.0346H163.954L156.27 18.1623V32.0346H153.257V13.9653H156.691Z" fill="#FFFDFA"/>
<path d="M171.838 13.9653H179.049C179.883 13.9653 180.63 14.0864 181.29 14.3284C181.949 14.5705 182.507 14.898 182.962 15.3074C183.418 15.7167 183.766 16.1937 184.008 16.7384C184.25 17.283 184.372 17.8597 184.372 18.4755C184.372 19.2338 184.204 19.9422 183.867 20.5936C183.531 21.245 183.022 21.8324 182.342 22.3485C182.885 22.5799 183.348 22.8611 183.734 23.1851C184.12 23.509 184.428 23.8614 184.67 24.2459C184.912 24.6303 185.091 25.0397 185.207 25.4704C185.323 25.9012 185.379 26.3426 185.379 26.7911C185.379 27.5173 185.225 28.1972 184.919 28.838C184.614 29.4787 184.204 30.0305 183.688 30.5039C183.173 30.9774 182.58 31.3476 181.907 31.6253C181.233 31.9029 180.536 32.0382 179.813 32.0382H171.838V13.9653ZM174.851 21.1667H178.628C179.045 21.1667 179.431 21.0991 179.782 20.9674C180.132 20.8357 180.437 20.6505 180.693 20.4227C180.949 20.1949 181.146 19.9279 181.286 19.6182C181.426 19.3085 181.497 18.9917 181.497 18.6535C181.497 18.3438 181.444 18.059 181.342 17.8063C181.241 17.5536 181.086 17.3293 180.876 17.1406C180.665 16.952 180.402 16.8025 180.08 16.6992C179.757 16.596 179.378 16.5426 178.943 16.5426H174.847V21.1667H174.851ZM174.851 29.4182H179.063C179.445 29.4182 179.831 29.3648 180.216 29.2616C180.602 29.1583 180.953 28.9946 181.262 28.7775C181.57 28.5603 181.826 28.2755 182.023 27.9338C182.219 27.5921 182.317 27.1791 182.317 26.695C182.317 26.2963 182.23 25.919 182.051 25.5559C181.872 25.1928 181.616 24.8795 181.279 24.609C180.942 24.3384 180.532 24.1284 180.048 23.9682C179.564 23.808 179.017 23.7297 178.414 23.7297H174.854V29.4147L174.851 29.4182Z" fill="#FFFDFA"/>
<path d="M204.265 22.9538C204.265 24.3528 204.082 25.6378 203.718 26.809C203.353 27.9802 202.816 28.984 202.115 29.8277C201.414 30.6713 200.551 31.3228 199.53 31.7891C198.51 32.2554 197.338 32.4868 196.02 32.4868C194.701 32.4868 193.533 32.2519 192.516 31.782C191.499 31.3121 190.64 30.6535 189.938 29.8134C189.237 28.9733 188.704 27.9659 188.342 26.7948C187.981 25.6236 187.799 24.3385 187.799 22.9395C187.799 21.5406 187.981 20.2626 188.342 19.1057C188.704 17.9488 189.237 16.9556 189.938 16.1262C190.64 15.2968 191.499 14.6524 192.516 14.1968C193.533 13.7376 194.701 13.5098 196.02 13.5098C197.338 13.5098 198.51 13.7411 199.53 14.2039C200.551 14.6667 201.414 15.311 202.115 16.1404C202.816 16.9698 203.349 17.963 203.718 19.1199C204.086 20.2769 204.265 21.5548 204.265 22.9538ZM201.252 22.9395C201.252 21.8431 201.115 20.8678 200.845 20.0134C200.575 19.1591 200.2 18.44 199.73 17.8562C199.26 17.2724 198.706 16.8275 198.071 16.5213C197.436 16.2152 196.756 16.0621 196.023 16.0621C195.29 16.0621 194.596 16.2152 193.961 16.5213C193.326 16.8275 192.779 17.2724 192.316 17.8562C191.853 18.44 191.485 19.1591 191.218 20.0134C190.952 20.8678 190.815 21.8431 190.815 22.9395C190.815 24.0359 190.948 25.0149 191.218 25.8799C191.488 26.7449 191.853 27.4747 192.316 28.0763C192.779 28.6779 193.33 29.1335 193.961 29.4503C194.596 29.7671 195.283 29.9238 196.023 29.9238C196.763 29.9238 197.436 29.7671 198.071 29.4503C198.706 29.1335 199.257 28.6779 199.73 28.0763C200.204 27.4747 200.575 26.7449 200.845 25.8799C201.115 25.0149 201.252 24.0359 201.252 22.9395Z" fill="#FFFDFA"/>
<path d="M223.294 22.9538C223.294 24.3528 223.112 25.6378 222.747 26.809C222.382 27.9802 221.846 28.984 221.144 29.8277C220.443 30.6713 219.58 31.3228 218.56 31.7891C217.539 32.2554 216.368 32.4868 215.049 32.4868C213.73 32.4868 212.563 32.2519 211.545 31.782C210.528 31.3121 209.669 30.6535 208.968 29.8134C208.266 28.9733 207.733 27.9659 207.372 26.7948C207.011 25.6236 206.828 24.3385 206.828 22.9395C206.828 21.5406 207.011 20.2626 207.372 19.1057C207.733 17.9488 208.266 16.9556 208.968 16.1262C209.669 15.2968 210.528 14.6524 211.545 14.1968C212.563 13.7411 213.73 13.5098 215.049 13.5098C216.368 13.5098 217.539 13.7411 218.56 14.2039C219.58 14.6667 220.443 15.311 221.144 16.1404C221.846 16.9698 222.379 17.963 222.747 19.1199C223.112 20.2769 223.294 21.5548 223.294 22.9538ZM220.282 22.9395C220.282 21.8431 220.145 20.8678 219.875 20.0134C219.605 19.1591 219.23 18.44 218.76 17.8562C218.29 17.2724 217.736 16.8275 217.101 16.5213C216.466 16.2152 215.786 16.0621 215.053 16.0621C214.32 16.0621 213.625 16.2152 212.99 16.5213C212.356 16.8275 211.808 17.2724 211.346 17.8562C210.883 18.44 210.514 19.1591 210.248 20.0134C209.981 20.8678 209.845 21.8431 209.845 22.9395C209.845 24.0359 209.978 25.0149 210.248 25.8799C210.514 26.7449 210.883 27.4747 211.346 28.0763C211.808 28.6779 212.359 29.1335 212.99 29.4503C213.622 29.7671 214.313 29.9238 215.053 29.9238C215.793 29.9238 216.466 29.7671 217.101 29.4503C217.736 29.1335 218.286 28.6779 218.76 28.0763C219.233 27.4747 219.605 26.7449 219.875 25.8799C220.148 25.0149 220.282 24.0359 220.282 22.9395Z" fill="#FFFDFA"/>
<path d="M230.263 13.9653L237.909 27.7095V13.9653H240.921V32.0346H237.526L229.842 18.1623V32.0346H226.83V13.9653H230.263Z" fill="#FFFDFA"/>
</svg>
