<svg width="235" height="60" viewBox="0 0 235 60" fill="none" xmlns="http://www.w3.org/2000/svg">
<g clip-path="url(#clip0_111_9592)">
<path d="M233.93 57.9701C232.58 55.9201 230.68 54.3701 228.43 53.5301C221.24 50.8201 213.76 50.0401 206.14 50.8701C203.2 51.1901 202.94 51.2401 201.7 48.5301C199.1 42.8401 194.5 39.5301 188.63 38.3001C182.96 37.1101 177.17 37.4601 171.57 39.1501C169.88 39.6601 169.37 39.3301 169.06 37.5601C167.54 28.7901 160.72 21.8701 151.28 22.2101C149.47 22.2701 147.67 22.3901 145.88 22.6101C144.69 22.7601 143.97 22.4301 143.8 21.0101C143.62 19.4801 143.17 17.9701 142.73 16.4901C140.25 8.14009 134.59 3.02009 126.3 0.870086C123.32 0.100086 120.29 -0.0699136 117.24 0.0400864C114.2 -0.0699136 111.16 0.100086 108.18 0.870086C99.8799 3.02009 94.2299 8.14009 91.7499 16.4901C91.3099 17.9701 90.8599 19.4801 90.6799 21.0101C90.5199 22.4301 89.7899 22.7501 88.5999 22.6101C86.8099 22.3901 85.0099 22.2701 83.1999 22.2101C73.7599 21.8701 66.9399 28.7901 65.4199 37.5601C65.1099 39.3301 64.6099 39.6601 62.9099 39.1501C57.3099 37.4701 51.5199 37.1201 45.8499 38.3001C39.9699 39.5301 35.3799 42.8401 32.7799 48.5301C31.5399 51.2401 31.2699 51.1801 28.3399 50.8701C20.7199 50.0401 13.2499 50.8301 6.04989 53.5301C3.79989 54.3801 1.89989 55.9201 0.549887 57.9701C-0.420113 59.4401 -0.180113 59.8801 1.55989 59.9001C3.81989 59.9301 6.08989 59.9001 8.34989 59.9001C44.6399 59.9001 80.9399 59.9001 117.23 59.9001C153.52 59.9001 189.82 59.9001 226.11 59.9001C228.37 59.9001 230.64 59.9201 232.9 59.9001C234.64 59.8801 234.88 59.4401 233.91 57.9701H233.93Z" fill="#533928"/>
</g>
<defs>
<clipPath id="clip0_111_9592">
<rect width="234.5" height="59.91" fill="white"/>
</clipPath>
</defs>
</svg>
