<svg width="123" height="141" viewBox="0 0 123 141" fill="none" xmlns="http://www.w3.org/2000/svg">
<path d="M42.9681 131.031C43.7808 134.255 45.1275 136.17 47.9139 135.915C49.5161 135.755 51.1414 136.617 52.7668 137C55.0423 110.349 62.8906 87.1763 75.4293 66.7489C85.6924 50.024 95.6768 32.9479 101.621 12.2333C102.643 8.62658 105.058 4.06239 103.479 1.31746C101.784 -1.65089 98.1846 1.18982 95.5375 2.14736C68.1151 11.9461 52.8365 38.9805 51.6755 77.7925C51.2111 93.1769 51.6755 108.721 48.8195 124.169C48.3319 117.019 47.8442 109.87 47.3334 102.752C46.1028 85.8037 44.2684 69.1108 36.7685 54.7797C28.5719 39.1081 17.2175 30.8095 3.51788 28.0965C0.452873 27.4901 -0.615211 29.0539 0.336792 33.3628C3.68043 48.2046 9.67113 60.9398 16.5442 73.0686C23.6494 85.5803 31.5673 97.2623 37.6508 110.827C40.4604 117.051 42.3644 123.722 42.9449 131.063L42.9681 131.031Z" fill="#67815E"/>
<path d="M56 136.992C57.2038 140.015 59.1253 141.172 61.5329 140.98C66.2324 131.493 73.6406 126.991 80.5163 121.653C93.8046 111.298 106.885 100.461 119.293 88.1447C119.895 87.5337 120.428 86.7939 121.03 86.1829C123.946 83.2244 123.576 80.8771 120.242 79.5265C105.658 73.4809 92.1146 74.2525 80.0532 89.4309C69.3809 102.841 62.5284 119.691 56.0232 137.024L56 136.992Z" fill="#67815E"/>
</svg>
