<svg width="843" height="597" viewBox="0 0 843 597" fill="none" xmlns="http://www.w3.org/2000/svg">
<g clip-path="url(#clip0_48_1874)">
<circle cx="474.5" cy="557.5" r="235.5" fill="#FDF0C8"/>
<path d="M619.76 596.6H459.04C459.82 593.33 460.92 590.21 463.24 587.67C464.36 587.61 465.43 587.89 466.48 588.18C470.62 589.31 474.87 589.8 479.11 589.93C489.29 590.24 499.32 589.1 509.1 586.06C517.36 583.5 524.16 578.76 529.87 572.4C534.98 566.71 540.55 561.74 547.96 559.2C549.7 558.6 551.51 557.93 552.59 556.21C554.7 552.85 553.73 549.25 549.96 546.52C546.77 544.21 543.15 542.89 539.38 541.9C538.67 536.12 538.11 530.31 536.61 524.68C536.09 522.75 536.26 520.54 534.76 518.92C533.77 514.95 531.99 511.3 529.98 507.78C527.56 503.53 523.99 500.23 520.6 496.76C517.09 493.17 514.24 489.1 513.36 484.01C512.33 478.06 513.74 472.52 516.51 467.26C515.75 471.92 518.37 474.7 521.93 476.88C528.31 480.78 535.42 482.8 542.57 484.6C557.08 488.26 571.9 490.05 586.79 491.29C601.73 492.53 616.62 494.35 631.5 496.11C644.48 497.64 657.47 498.74 670.53 499C682.64 499.24 694.69 498.15 706.72 497.06C717.28 496.11 727.85 495.43 738.42 494.83C745.71 494.42 753.02 494.14 760.29 493.55C775.15 492.34 789.76 489.67 803.97 485.05C812.55 482.26 820.94 479.05 827.89 473C830 471.17 831.52 468.96 831.78 466.07C832.17 465.79 831.91 465.01 832.77 464.92C833.26 468.66 835.31 471.84 836.76 475.19C838.01 478.08 839.42 480.99 840.91 483.81C841.36 484.66 841.16 485.96 842.52 486.22C842.54 490.03 842.57 493.84 842.57 497.65C842.56 514.32 842.54 530.98 842.52 547.65C838.9 547.67 835.4 548.66 831.84 549.1C830.2 549.3 828.68 549.34 828.22 547.26C828.35 547.14 828.48 547.01 828.61 546.88C828.74 546.6 828.86 546.32 828.99 546.04C829.3 545.48 829.6 544.91 829.93 544.36C833.49 538.38 835.62 531.9 836.33 525C836.59 522.48 835.9 522.09 833.53 522.96C821.63 527.37 815.33 536.21 813.41 548.5C812.57 549.76 811.77 551.11 809.91 550.02C809.1 548.81 809.01 547.33 808.46 546.03C807.23 543.1 807.78 540.35 809.27 537.67C810.78 534.95 812.44 532.32 814.35 529.87C818.68 524.35 822.64 518.64 824.95 511.92C826.8 506.55 827.94 501.09 827.88 495.39C827.87 494.24 827.69 493.64 826.33 494.23C818.71 497.54 812.83 502.84 808.76 510.03C804.61 517.35 803.91 525.34 804.8 533.55C805.08 536.11 805.46 538.65 805.8 541.2C804.58 539.44 803.86 537.57 802.97 535.79C800.23 530.25 797.15 524.87 792.21 521.01C782.86 513.69 772.5 513.5 761.71 517.25C759.92 517.87 760.4 518.79 761.32 519.81C764.3 523.1 767.77 525.75 771.69 527.86C777.18 530.81 783.19 532.11 789.14 533.62C794.18 534.9 798.79 536.83 802.18 541.08C805.28 544.97 806.81 549.56 808.43 554.12C808.84 555.28 809.4 556.43 809.47 558.19C806.99 554.94 804.51 552.33 801.87 549.87C793.74 542.29 784.33 538.35 773.06 539.93C769.41 540.44 765.76 541.07 762.69 543.4C761.73 543.38 760.73 543.51 759.8 543.3C755.81 542.4 751.99 543.52 748.2 544.35C745.12 545.03 742.12 545.76 738.93 545.78C736.32 545.8 733.74 545.68 731.17 545.32C727.2 541.66 726.96 537.39 728.84 532.59C730.97 527.15 734.03 522.25 737.14 517.35C738.33 515.47 739.95 513.79 740.83 511.29C736.93 513.32 734.77 516.68 731.84 519.15C730.03 520.67 728.84 522.47 727.98 524.57C726.38 528.48 723.91 531.91 721.79 535.53C720.76 537.28 719.54 539.05 717.64 540.26C716.37 541.07 714.88 542.02 714.49 543.77C711.81 544.09 709.23 543.08 706.61 543.07C702.03 543.05 697.5 543.46 693.22 545.47C688.73 547.57 684.77 550.44 681.28 553.84C677.07 557.94 673.98 563 670.45 567.68C669.61 568.79 668.7 569.42 667.41 569.39C662.78 569.3 658.15 569.14 653.52 569.01C654.79 565.93 655.7 562.71 656.85 559.61C659.29 553.03 661 546.18 664.21 539.88C665.53 537.29 666.49 534.5 667.94 532C671.27 526.28 675.98 521.75 681.3 517.92C685.12 515.17 688.45 511.99 691.22 508.2C691.51 507.8 692.14 507.4 691.66 506.9C691.2 506.42 690.7 506.96 690.31 507.25C687.93 509.01 685.64 510.88 682.96 512.24C680.54 513.46 678.67 515.58 676.39 516.97C673.45 518.77 671.14 521.25 669.05 523.71C665.42 527.98 663.15 533.23 660.93 538.39C659.45 541.82 658.67 545.51 657.44 549.03C655.17 555.58 653.98 562.41 651.98 569.02C651.13 569.57 650.14 569.63 649.2 569.75C642.42 570.61 636.49 573.49 631.59 578.09C626.12 583.21 622.22 589.49 619.76 596.61V596.6ZM575.79 566.28C576.18 565.27 575.86 564.67 575.71 564.07C573.69 555.93 571.66 547.79 569.62 539.65C567.88 532.7 564.28 526.78 559.2 521.81C556.14 518.81 553.08 515.73 550.96 512.09C547.92 506.87 544.47 501.81 542.62 495.95C542.32 495.01 541.65 494.21 540.2 493.83C540.98 496.45 541.47 498.86 542.41 501.08C544.11 505.12 546.14 509.02 547.91 513.03C549.94 517.62 553.03 521.38 556.71 524.69C560.44 528.05 562.95 532.15 564.68 536.83C567.14 543.49 568.13 550.59 570.86 557.17C572.17 560.33 573.82 563.22 575.8 566.26L575.79 566.28ZM594.3 584.14C595.09 584.48 595.63 584.17 596.07 583.85C598.61 582.02 600.84 579.87 602.45 577.18C606.23 570.86 607.43 563.7 608.78 556.65C609.65 552.13 609.61 547.45 610.33 542.86C611.55 535.06 614.09 527.77 617.68 520.78C619.02 518.18 620.21 515.49 621.09 512.52C619.91 512.78 619.38 513.56 618.87 514.26C616.56 517.44 614.53 520.8 612.54 524.2C608.28 531.5 606.39 539.46 605.83 547.74C605.36 554.59 604.8 561.41 602.6 567.94C601.31 571.77 600.07 575.63 597.75 579.07C596.62 580.74 595.4 582.38 594.29 584.14H594.3Z" fill="#4E485A"/>
<path d="M619.76 596.6C622.22 589.48 626.13 583.19 631.59 578.08C636.5 573.49 642.42 570.61 649.2 569.74C650.14 569.62 651.13 569.55 651.98 569.01C652.49 569.01 653.01 569.01 653.52 569.01C658.15 569.14 662.78 569.3 667.41 569.39C668.7 569.41 669.61 568.79 670.45 567.68C673.98 563 677.07 557.94 681.28 553.84C684.77 550.44 688.73 547.57 693.22 545.47C697.5 543.46 702.03 543.05 706.61 543.07C709.23 543.08 711.81 544.09 714.49 543.77C715.27 544.88 716.51 545.06 717.7 545.31C721.17 546.03 724.73 545.63 728.23 546.05C729.19 546.17 730.46 546.62 731.18 545.33C733.76 545.69 736.33 545.81 738.94 545.79C742.13 545.77 745.13 545.04 748.21 544.36C752 543.52 755.82 542.41 759.81 543.31C760.73 543.52 761.73 543.38 762.7 543.41C762.71 543.98 763.06 544.36 763.44 544.73C768.59 549.74 774.46 553.5 781.55 555.05C786.04 556.03 790.61 556.37 795.2 556.61C797.39 556.72 799.6 556.83 801.75 557.22C805.87 557.98 808.87 560.38 810.93 564.03C812.27 566.4 814.36 573.41 814.18 574.98C813.41 574.31 812.48 573.52 811.56 572.72C805.63 567.57 799.12 564.22 790.9 565.52C787 566.14 783.58 567.55 780.73 570.29C780.08 570.92 779.33 571.54 780.53 572.46C786.63 577.15 793.53 578.86 801.11 578.07C802.32 577.94 803.52 577.64 804.72 577.35C811.09 575.83 815.53 578.75 816.59 585.3C817.2 589.06 817.64 592.85 818.16 596.62H760.7C760 594.54 760.55 592.66 761.66 590.89C762.73 589.19 764.06 587.69 765.4 586.19C768.69 582.52 771.77 578.69 773.38 573.92C773.66 573.08 774.29 572.08 773.64 571.34C772.94 570.54 771.82 570.96 770.89 571.16C765.05 572.4 761.75 576.41 759.57 581.61C758.79 583.47 758.4 585.45 758.24 587.76C757.39 586.44 757.26 585.32 757.14 584.15C756.55 578.32 759.11 573.63 762.35 569.12C764.97 565.47 766.01 561.33 765.81 556.85C765.76 555.64 765.28 555.44 764.21 555.77C761.73 556.52 759.59 557.77 757.96 559.8C755.63 562.69 754.74 566.11 754.51 569.71C754.31 572.77 754.47 575.84 754.73 578.92C753.97 576.04 753.31 573.15 752.15 570.42C750.86 567.39 749.09 564.72 746.1 563.09C740.97 560.28 735.76 560.8 730.57 562.84C728.63 563.61 728.6 564.14 730.2 565.47C734.04 568.66 738.21 571.37 742.59 573.76C746.41 575.84 750.18 577.94 752.32 582.04C753.71 584.7 755.08 587.34 755.3 590.57C753.49 589.16 752.13 587.33 750.48 585.84C745.71 581.53 738.67 581.04 733.83 584.52C731.98 585.86 731.99 586.44 733.95 587.47C734.86 587.95 735.8 588.39 736.75 588.8C741.06 590.63 745.64 590.92 750.24 591.09C753.49 591.21 756.11 593.4 756.82 596.6H619.78H619.76Z" fill="#3E2B1E"/>
<path d="M818.15 596.6C817.63 592.83 817.19 589.04 816.58 585.28C815.52 578.74 811.08 575.81 804.71 577.33C803.52 577.61 802.32 577.92 801.1 578.05C793.52 578.85 786.62 577.13 780.52 572.44C779.33 571.52 780.07 570.9 780.72 570.27C783.56 567.53 786.99 566.12 790.89 565.5C799.11 564.2 805.62 567.55 811.55 572.7C812.47 573.5 813.4 574.3 814.17 574.96C814.35 573.39 812.25 566.37 810.92 564.01C808.86 560.36 805.86 557.96 801.74 557.2C799.59 556.8 797.38 556.7 795.19 556.59C790.61 556.35 786.03 556.02 781.54 555.03C774.45 553.48 768.57 549.71 763.43 544.71C763.06 544.35 762.71 543.96 762.69 543.39C765.75 541.06 769.4 540.43 773.06 539.92C784.33 538.34 793.74 542.27 801.87 549.86C804.51 552.32 806.99 554.93 809.47 558.18C809.41 556.42 808.85 555.27 808.43 554.11C806.81 549.55 805.28 544.96 802.18 541.07C798.79 536.82 794.19 534.89 789.14 533.61C783.19 532.1 777.18 530.8 771.69 527.85C767.77 525.74 764.31 523.09 761.32 519.8C760.4 518.78 759.91 517.86 761.71 517.24C772.5 513.49 782.86 513.68 792.21 521C797.15 524.86 800.22 530.25 802.97 535.78C803.85 537.56 804.58 539.43 805.8 541.19C805.46 538.64 805.08 536.1 804.8 533.54C803.9 525.33 804.61 517.34 808.76 510.02C812.83 502.83 818.71 497.53 826.33 494.22C827.69 493.63 827.87 494.23 827.88 495.38C827.94 501.08 826.8 506.55 824.95 511.91C822.63 518.63 818.67 524.34 814.35 529.86C812.43 532.31 810.78 534.94 809.27 537.66C807.78 540.34 807.23 543.09 808.46 546.02C809.01 547.33 809.1 548.8 809.91 550.01C810.99 553.81 812.06 557.62 813.14 561.42C813.01 557.06 812.91 552.77 813.42 548.49C815.34 536.2 821.63 527.36 833.54 522.95C835.91 522.07 836.6 522.46 836.34 524.99C835.64 531.9 833.5 538.37 829.94 544.35C829.61 544.9 829.32 545.47 829 546.03C828.87 546.31 828.75 546.59 828.62 546.87C828.49 547 828.36 547.13 828.23 547.26C824.74 551.24 821.17 555.14 817.79 559.22C815.72 561.72 813.9 564.4 815.06 568.04C815.82 570.43 816.25 572.93 816.83 575.38C817.14 576.68 817.45 577.97 817.77 579.27C818.91 569.96 824.81 564.12 834.24 563.12C836.05 562.93 836.37 563.24 835.84 564.98C834.87 568.17 833.33 571.11 830.97 573.48C827.92 576.55 824.74 579.49 821.62 582.49C819.95 584.09 818.97 585.96 819.32 588.37C819.72 591.11 819.81 593.9 820.49 596.61H818.16L818.15 596.6Z" fill="#67815E"/>
<path d="M820.48 596.6C819.81 593.89 819.71 591.11 819.31 588.36C818.96 585.95 819.94 584.09 821.61 582.48C824.73 579.48 827.91 576.55 830.96 573.47C833.32 571.09 834.85 568.16 835.83 564.97C836.36 563.23 836.04 562.92 834.23 563.11C824.8 564.1 818.91 569.94 817.76 579.26C817.45 577.96 817.13 576.67 816.82 575.37C816.24 572.92 815.81 570.42 815.05 568.03C813.89 564.38 815.71 561.71 817.78 559.21C821.15 555.14 824.73 551.23 828.22 547.25C828.68 549.33 830.19 549.29 831.84 549.09C835.41 548.65 838.9 547.66 842.52 547.64C842.54 548.35 842.58 549.06 842.58 549.77C842.59 565.38 842.6 580.99 842.61 596.6H820.48Z" fill="#3E2B1E"/>
<path d="M756.81 596.6C756.1 593.4 753.48 591.21 750.23 591.09C745.63 590.92 741.06 590.63 736.74 588.8C735.79 588.4 734.85 587.96 733.94 587.47C731.98 586.44 731.97 585.85 733.82 584.52C738.65 581.03 745.7 581.52 750.47 585.84C752.12 587.33 753.47 589.15 755.29 590.57C755.06 587.34 753.69 584.7 752.31 582.04C750.17 577.93 746.4 575.84 742.58 573.76C738.2 571.37 734.03 568.66 730.19 565.47C728.59 564.14 728.62 563.6 730.56 562.84C735.74 560.8 740.96 560.28 746.09 563.09C749.07 564.73 750.85 567.39 752.14 570.42C753.3 573.15 753.96 576.04 754.72 578.92C754.47 575.84 754.31 572.77 754.5 569.71C754.73 566.1 755.62 562.69 757.95 559.8C759.59 557.77 761.72 556.51 764.2 555.77C765.27 555.45 765.74 555.64 765.8 556.85C766 561.33 764.96 565.47 762.34 569.12C759.11 573.62 756.54 578.32 757.13 584.15C757.25 585.32 757.38 586.44 758.23 587.76C758.39 585.45 758.78 583.48 759.56 581.61C761.74 576.4 765.04 572.39 770.88 571.16C771.81 570.96 772.94 570.55 773.63 571.34C774.28 572.08 773.65 573.08 773.37 573.92C771.76 578.69 768.68 582.52 765.39 586.19C764.05 587.69 762.72 589.18 761.65 590.89C760.54 592.66 759.99 594.54 760.69 596.62H756.81V596.6Z" fill="#67815E"/>
<path d="M842.46 26.42C842.5 32.75 842.55 39.0701 842.56 45.4001C842.57 50.4401 842.53 55.47 842.51 60.51C841.85 61.43 841.61 62.5101 841.29 63.5601C838.79 71.6201 836.57 79.75 835.16 88.09C834.28 93.26 833.79 98.44 833.69 103.67C833.68 104.27 833.41 105.13 834.23 105.34C834.9 105.52 835.09 104.7 835.46 104.28C837.63 101.83 839.66 99.2401 842.52 97.5101C842.52 111.68 842.52 125.85 842.51 140.03C841.98 140.4 841.91 140.97 841.76 141.54C839.67 149.47 839.4 157.62 839.2 165.72C838.85 179.35 839.1 192.98 839.54 206.61C839.54 206.87 839.56 207.13 839.58 207.38C840.08 216.2 840.59 225.02 841.06 233.85C841.35 239.32 841.6 244.8 841.85 250.28C841.88 250.89 841.98 251.44 842.51 251.81C842.51 252.63 842.51 253.45 842.51 254.27C842.51 254.47 842.51 254.67 842.51 254.86C842.53 256.74 842.57 258.61 842.57 260.49C842.57 335.08 842.57 409.68 842.57 484.27C842.57 484.92 842.54 485.56 842.52 486.21C841.17 485.96 841.36 484.66 840.91 483.8C839.42 480.98 838.01 478.07 836.76 475.18C835.31 471.83 833.26 468.65 832.77 464.91C831.91 464.99 832.18 465.77 831.78 466.06C831.72 462.35 829.34 460.09 826.68 458.08C822.87 455.21 818.43 453.63 813.98 452.1C810.89 451.04 807.78 450 804.51 449.59C804.29 448.75 804.59 447.95 804.73 447.14C805.6 441.93 805.44 436.8 803.49 431.82L803.54 431.79C803.26 431.04 802.98 430.29 802.7 429.54L802.65 429.43L801.79 427.19C800.27 424.71 798.57 422.38 796.32 420.51C792.46 417.31 788 415.31 783.2 414.08C781.77 413.71 781.06 413.08 780.76 411.6C780.34 409.54 779.64 407.54 779.04 405.51C778.77 404.59 778.81 403.88 779.5 403.04C784.74 396.75 787.55 389.42 788.57 381.36C789.24 377.54 789.04 373.69 788.93 369.85C788.89 368.75 788.89 367.66 788.81 366.56C787.9 353.96 786.79 341.37 785.16 328.83C783.74 317.89 782.94 306.86 780.43 296.09C779.25 291.05 777.49 286.2 773.94 282.24C773.85 282.04 773.76 281.87 773.49 281.92L773.53 281.96C773.59 281.59 773.41 281.34 773.1 281.16L773.12 281.19C772.98 281.05 772.84 280.91 772.7 280.77L772.73 280.8C772.58 280.54 772.43 280.29 772.28 280.03C773.34 280.03 773.44 279.33 773.52 278.47C773.98 273.72 774.25 268.97 774.26 264.2C774.26 262.14 774.35 260.08 774.41 258.01C774.63 251.19 775.3 244.37 774.9 237.54C775.13 236.87 775.33 236.19 775.59 235.53C780.78 222.42 782.06 208.89 780.01 194.99C779.08 188.69 777.23 182.66 774.9 176.75C774.99 168.54 775.14 160.33 774.74 152.11C774.42 145.59 774.04 139.08 773.41 132.59C772.91 127.45 772.26 122.32 771.11 117.27C771.17 116.31 770.92 115.42 770.69 114.48C770.32 112.95 769.51 111.52 769.57 109.88C769.48 108.18 768.57 106.74 768.02 105.19C767.8 102.73 766.66 100.52 766.05 98.16C764.55 92.3501 760.82 88.0901 756.34 84.3701C756.01 84.1001 755.73 83.59 755.21 83.83C754.71 84.0601 754.84 84.6101 754.84 85.0401C754.84 89.3001 754.84 93.5601 754.85 97.8201C754.85 99.3801 754.85 100.94 754.85 102.5C754.99 105.85 754.47 109.21 755.15 112.54C754.66 115.39 754.86 118.25 754.9 121.11C754.84 121.67 754.84 122.22 755.23 122.69C755.69 127.89 755.89 133.11 756.97 138.24C757.06 138.65 757.35 139.2 756.78 139.42C756.26 139.62 756 139.08 755.74 138.74C753.55 135.82 753.22 132.3 752.57 128.89C752.32 127.57 752.29 126.2 752.15 124.85C752.11 124.41 752.17 123.86 751.65 123.69C751.11 123.52 750.87 124.05 750.59 124.38C749.26 125.93 747.7 127.14 745.74 127.79C744.68 128.15 743.64 128.28 742.22 127.75C748.95 123.35 751.92 117.22 751.7 109.5C752.04 106.11 751.23 102.76 751.36 99.3701C751.36 97.8201 751.36 96.2601 751.36 94.7101C751.95 90.6101 751.69 86.48 751.73 82.36C751.75 80.37 751.17 78.73 749.24 77.7201C748.11 77.1301 747.02 76.39 746.05 75.56C740.84 71.1 734.79 67.87 729.15 64.0401C728.13 63.3501 727.22 62.12 725.74 62.12C725.2 60.46 724.55 58.8301 724.13 57.1501C722.18 49.25 720.34 41.32 718.73 33.34C726.16 36.2701 733.59 39.1701 740.85 42.4901C744.55 44.1801 748.27 45.82 751.93 47.6C758.55 50.82 765.06 54.24 771.13 58.44C771.56 58.74 772.01 59.05 772.55 58.7001C773 58.4001 772.92 57.9501 772.9 57.48C772.55 48.9 771.31 40.39 771.14 31.8C771.13 31.13 771.07 30.4901 770.32 30.2001C776.14 26.6301 781.4 22.41 785.57 16.55C785.79 17.25 785.86 17.5 785.94 17.74C787.86 23.87 791.32 28.9801 796.12 33.2401C797.35 34.3301 798.25 34.64 799.15 32.87C800.05 31.1 801.16 29.43 802.18 27.71C803.35 29.29 804.52 30.87 805.69 32.46C805.27 33.48 805.96 34.34 806.12 35.2701C807.62 44.1 809.18 52.91 810.72 61.73C810.82 62.3 810.76 63.1101 811.35 63.2401C812.24 63.4401 812.18 62.4501 812.44 61.93C814.88 57.18 817.17 52.3501 819.75 47.68C824.41 39.2201 829.24 30.86 834.01 22.46C836.76 23.9 839.28 25.82 842.42 26.41L842.46 26.42Z" fill="#533928"/>
<path d="M614.82 0.0400293C619.8 0.0400293 624.78 0.0400293 629.76 0.0400293C629.88 0.270029 629.96 0.530029 630.12 0.720029C633.39 4.43003 637.67 6.83003 641.64 9.63003C642.21 10.03 642.59 9.71003 642.98 9.34003C642.74 11.04 643.39 11.88 645.19 11.62C645.5 11.57 645.83 11.62 646.14 11.62C646.37 11.92 646.53 12.31 646.82 12.52C652.49 16.59 658.96 18.91 665.5 21.09C666.76 21.51 667.01 20.81 667.15 19.71C667.33 18.31 666.43 16.94 667.11 15.55C667.69 22.71 669.09 29.69 671.71 36.4C670.69 36.48 670.3 37.03 670.2 38.04C669.54 44.98 668.47 51.87 666.95 58.68C665.73 64.17 663.94 69.44 659.73 73.55C653.79 79.34 643.83 79.82 637.42 74.52C636.33 73.62 635.17 72.8 634.27 71.69C633.44 72.3 633.76 73.07 633.74 73.73C633.48 82.4 634.07 91.06 634.11 99.73C634.11 101.36 634.8 102.88 635.11 104.45C636.89 113.33 637.85 122.31 637.59 131.38C637.59 131.67 637.67 132.03 637.14 132.3C635.54 126.84 634.66 121.26 633.47 115.72C633.33 118.85 633.06 121.99 633.02 125.11C632.88 134.75 632.96 144.4 632.93 154.04C632.93 154.89 633.35 156.27 632.36 156.45C631.38 156.63 631 155.22 630.71 154.38C629.44 150.78 629.26 147 629.58 143.26C630.03 137.89 629.69 132.52 629.88 127.16C630.57 108.48 630.81 89.79 630.66 71.09C630.64 68.38 629.88 66.08 628.35 63.86C626.07 60.54 624.75 56.73 623.69 52.88C622.56 48.78 621.59 44.63 621.27 40.37C621.25 40.07 621.02 39.79 620.89 39.49C621.7 38.11 620.93 36.7 620.91 35.31C620.8 28.77 621.36 22.29 622.19 15.82C622.46 13.74 622.45 11.56 624.33 10.06C624.8 9.68003 625.05 9.09003 624.43 8.57003C621.53 6.13003 618.98 3.24003 615.5 1.52003C615.27 1.02003 615.05 0.530029 614.82 0.0300293V0.0400293ZM624.37 35.65C624.53 44.25 625.97 52.53 630.15 60.5C630.78 59.43 630.62 58.7 630.6 58.01C630.51 55.17 630.3 52.34 630.27 49.5C630.21 42.71 630.23 35.93 630.21 29.14C630.21 28.31 630.37 27.44 629.79 26.71C629.8 23.16 629.64 19.59 629.88 16.05C630.05 13.68 629 12.33 627.24 11.13C626.46 10.6 626.15 10.61 626.02 11.6C625.05 18.63 623.99 25.66 624.06 32.78C624.06 33.74 623.89 34.73 624.37 35.64V35.65ZM660.87 32.62C660.09 31.55 659.28 30.49 658.54 29.39C657.67 28.11 656.58 27.68 655.12 28.3C654.75 27.73 654.18 27.42 653.57 27.18C647.2 24.6 641.54 20.73 635.64 17.29C635.06 16.95 634.53 16.14 633.78 16.57C633.05 16.99 633.37 17.87 633.37 18.54C633.47 29.34 633.61 40.14 633.71 50.94C633.75 55.53 633.71 60.13 633.73 64.72C633.73 65.42 633.64 66.16 634.19 66.74C636.25 68.95 638.09 71.37 640.86 72.83C645.55 75.29 650.38 76.25 654.96 73.08C658.62 70.54 661.17 66.91 662.52 62.55C665.08 54.3 665.73 45.7 667.06 37.23C667.18 36.49 667.41 35.38 666.73 35.03C664.84 34.08 663.11 32.66 660.85 32.62H660.87Z" fill="#533928"/>
<path d="M615.5 1.52988C618.97 3.24988 621.53 6.13988 624.43 8.57989C625.05 9.09988 624.8 9.68988 624.33 10.0699C622.46 11.5799 622.46 13.7499 622.19 15.8299C621.37 22.2999 620.8 28.7899 620.91 35.3199C620.93 36.7099 621.7 38.1099 620.89 39.4999C617.77 41.5499 614.96 44.0499 611.67 45.8699C607.81 47.9899 603.9 49.9199 599.54 50.8599C598.02 51.1899 597.46 50.8199 597.23 49.2799C596.07 41.4199 598.21 34.3299 602.13 27.6299C602.74 26.5799 603.33 25.5199 604.07 24.2099C600.88 24.6899 598.07 25.5399 595.09 25.7199C589.57 26.0599 584.31 25.0999 579.11 23.4899C577.63 23.0299 576.2 22.4199 574.74 21.9199C573.33 21.4299 573.2 20.7699 574.04 19.4999C577.72 13.9399 582.58 9.68989 588.28 6.33989C589.56 5.58989 590.88 4.90988 592.18 4.19988C592.32 4.07988 592.45 3.95988 592.59 3.82988C592.85 3.69988 593.11 3.56988 593.37 3.44988C594.64 3.35988 595.84 3.06988 596.87 2.27988C603.03 0.889885 609.22 -0.060115 615.51 1.48988L615.5 1.52988Z" fill="#67815E"/>
<path d="M716.45 73.78C714.94 79.57 712.37 84.98 708.1 89.05C700.97 95.87 692.29 95.75 685.12 88C681.32 83.89 679.61 78.78 677.77 73.67C677.27 89.91 675.37 106.02 674.75 122.29C673.57 119.89 672.64 117.44 672.6 114.84C672.5 107.86 672.62 100.9 673.18 93.92C673.6 88.66 674.12 83.38 674.16 78.07C674.26 65.35 674.6 52.63 674.54 39.9C674.54 38.3 674.23 37.12 672.6 36.58C681.92 33.44 689.51 27.93 695.39 20.03C697.5 17.2 698.62 13.89 700.05 10.73C700.34 13.25 701.83 15.28 702.83 17.5C705.49 23.42 708.09 29.44 714.99 31.76C715.23 31.84 715.42 32.04 715.63 32.19C715.86 37.63 717.67 42.78 718.58 48.09C719.2 51.76 720.56 55.28 721.08 58.99C718.15 57.4 715.24 55.78 712.3 54.23C711.25 53.68 710.43 52.57 709.05 52.77C706.38 51.24 703.76 49.59 701.02 48.19C696.32 45.79 691.51 43.61 686.5 41.92C686.31 41.22 685.94 41.07 685.36 41.53C683.93 41.14 682.52 40.66 681.07 40.38C678.9 39.97 678.74 40.15 678.75 42.34C678.78 52.34 678.49 62.33 680.95 72.19C682.38 77.93 684.6 83.1 688.9 87.15C693.29 91.3 699.4 91.82 703.87 88.17C710.15 83.05 712.82 75.93 714.49 68.31C716.09 69.78 717.21 71.42 716.44 73.75L716.45 73.78Z" fill="#533928"/>
<path d="M700.06 10.7401C698.63 13.9001 697.51 17.2101 695.4 20.0401C689.52 27.9301 681.93 33.4501 672.61 36.5901C672.31 36.5301 672.02 36.4801 671.72 36.4201C669.1 29.7101 667.7 22.7301 667.12 15.5701C667.22 15.4101 667.39 15.2401 667.4 15.0801C667.57 9.68006 669.41 4.78006 671.85 0.0600586C681.9 0.0600586 691.96 0.0600586 702.01 0.0600586C702.08 3.75006 700.78 7.20006 700.07 10.7501L700.06 10.7401Z" fill="#8A9557"/>
<path d="M615.5 1.53004C609.21 -0.0199609 603.03 0.930039 596.86 2.32004C598.3 1.05004 600.16 1.10004 601.88 0.770039C602.51 0.650039 603.16 0.700039 603.55 0.0500391C603.9 0.0500391 604.24 0.0500391 604.59 0.0500391C604.74 0.0500391 604.9 0.0500391 605.05 0.0500391C608.31 0.0500391 611.56 0.0500391 614.82 0.0400391C615.05 0.540039 615.27 1.03004 615.5 1.53004Z" fill="#2F5263"/>
<path d="M596.87 2.31006C595.84 3.10006 594.64 3.40006 593.37 3.48006C594.36 2.57006 595.57 2.31006 596.87 2.31006Z" fill="#2F5263"/>
<path d="M755.25 122.71C754.86 122.24 754.86 121.7 754.92 121.13C755.71 121.51 755.72 122.06 755.25 122.71Z" fill="#2F5263"/>
<path d="M593.38 3.47998C593.12 3.60998 592.86 3.73998 592.6 3.85998C592.86 3.72998 593.12 3.59998 593.38 3.47998Z" fill="#2F5263"/>
<path d="M592.6 3.86011C592.46 3.98011 592.33 4.10011 592.19 4.23011C592.33 4.11011 592.46 3.99011 592.6 3.86011Z" fill="#2F5263"/>
<path d="M804.52 449.6C807.79 450.02 810.9 451.05 813.99 452.11C818.43 453.64 822.88 455.22 826.69 458.09C829.36 460.1 831.73 462.36 831.79 466.07C831.54 468.96 830.01 471.17 827.9 473C820.95 479.04 812.56 482.26 803.98 485.05C789.77 489.67 775.17 492.33 760.3 493.55C753.02 494.14 745.72 494.42 738.43 494.83C727.85 495.43 717.28 496.11 706.73 497.06C694.69 498.15 682.65 499.24 670.54 499C657.48 498.74 644.48 497.64 631.51 496.11C616.62 494.35 601.74 492.54 586.8 491.29C571.91 490.05 557.09 488.26 542.58 484.6C535.43 482.8 528.32 480.78 521.94 476.88C518.38 474.7 515.75 471.92 516.52 467.26C518.94 462.35 523.41 459.82 528.06 457.7C537.52 453.37 547.6 451.18 557.79 449.41C558.55 449.28 559.31 449.11 560.06 448.96C560.57 448.95 561.1 449 561.54 448.65H561.56C562.77 448.48 563.32 449.3 563.87 450.15L563.83 450.13C563.95 450.19 564.04 450.27 564.1 450.4C564.29 450.75 564.47 451.1 564.66 451.46C564.9 451.79 565.14 452.13 565.37 452.46L565.42 452.53C565.86 453.62 566.76 454.32 567.53 455.14C569.92 457.25 572.32 459.35 574.71 461.46C574.35 462.47 573.4 462.39 572.61 462.56C569.76 463.15 566.87 463.6 564.32 465.12C563.22 465.78 561.91 466.44 562.06 467.99C562.2 469.39 563.29 470.24 564.47 470.84C567.25 472.26 570.17 473.32 573.24 473.84C578.45 474.72 583.67 475.54 588.96 475.98C595.58 476.54 602.21 477.05 608.85 477.34C610.57 477.42 612.11 477.49 613.46 478.82C614.47 479.82 615.92 480.19 617.32 480.5C621.94 481.53 626.67 481.6 631.36 482C638.82 482.63 646.29 483.11 653.75 483.62C664.25 484.33 674.74 485.11 685.27 485.09C691.86 485.08 698.44 484.84 705.03 484.75C717.89 484.59 730.72 485.38 743.56 485.83C756.42 486.29 769.26 485.77 781.93 483.16C789.46 481.61 797.04 480.29 804.25 477.49C806.6 476.58 808.94 475.61 810.73 473.72C812.25 472.11 812.24 471.11 810.64 469.62C809.38 468.45 807.83 467.77 806.22 467.28C802.96 466.29 799.68 465.39 796.41 464.45C798.27 462.02 800.18 459.63 801.57 456.86C802.76 454.51 803.46 451.99 804.49 449.59L804.52 449.6Z" fill="#8E7B87"/>
<path d="M463.24 587.67C464.06 583.74 466.86 581.02 469.25 578.09C472.6 573.97 477.12 571.47 482 569.57C482.66 569.31 483.37 569.17 483.89 568.64C484.93 568.69 485.76 568.34 486.28 567.4C486.77 567.42 487.27 567.43 487.76 567.45C488.46 567.33 489.17 567.07 489.85 567.11C491.05 567.19 491.63 566.59 491.98 565.58C492.45 566.66 493.25 566.07 493.97 565.99C501.25 565.23 506.34 561.04 510.66 555.53C513.78 551.56 517.38 548.06 521.84 545.56C527.31 542.5 533.2 541.53 539.38 541.91C543.15 542.9 546.77 544.22 549.96 546.53C553.72 549.25 554.69 552.86 552.59 556.22C551.51 557.95 549.7 558.62 547.96 559.21C540.56 561.75 534.98 566.71 529.87 572.41C524.16 578.77 517.36 583.5 509.1 586.07C499.32 589.11 489.29 590.24 479.11 589.94C474.87 589.81 470.62 589.32 466.48 588.19C465.42 587.9 464.36 587.61 463.24 587.68V587.67Z" fill="#6D637B"/>
<path d="M575.8 566.28C573.81 563.24 572.17 560.35 570.86 557.19C568.13 550.6 567.14 543.51 564.68 536.85C562.95 532.17 560.44 528.07 556.71 524.71C553.03 521.4 549.94 517.64 547.91 513.05C546.13 509.04 544.11 505.14 542.41 501.1C541.47 498.87 540.98 496.46 540.2 493.85C541.65 494.22 542.32 495.02 542.62 495.97C544.48 501.83 547.92 506.89 550.96 512.11C553.08 515.75 556.14 518.84 559.2 521.83C564.28 526.8 567.88 532.71 569.62 539.67C571.66 547.81 573.69 555.95 575.71 564.09C575.86 564.69 576.18 565.29 575.79 566.3L575.8 566.28Z" fill="#4D4143"/>
<path d="M594.31 584.14C595.43 582.38 596.64 580.74 597.77 579.07C600.09 575.63 601.33 571.77 602.62 567.94C604.82 561.41 605.38 554.59 605.85 547.74C606.41 539.46 608.3 531.5 612.56 524.2C614.55 520.8 616.57 517.44 618.89 514.26C619.39 513.57 619.93 512.78 621.11 512.52C620.22 515.49 619.03 518.18 617.7 520.78C614.11 527.77 611.57 535.05 610.35 542.86C609.63 547.45 609.67 552.12 608.8 556.65C607.45 563.7 606.25 570.86 602.47 577.18C600.86 579.87 598.62 582.02 596.09 583.85C595.64 584.17 595.11 584.48 594.32 584.14H594.31Z" fill="#4D4143"/>
<path d="M653.53 568.99C653.02 568.99 652.5 568.99 651.99 568.99C653.99 562.38 655.18 555.55 657.45 549C658.67 545.48 659.45 541.79 660.94 538.36C663.17 533.2 665.43 527.95 669.06 523.68C671.15 521.22 673.47 518.74 676.4 516.94C678.67 515.55 680.55 513.43 682.97 512.21C685.65 510.86 687.94 508.99 690.32 507.22C690.71 506.93 691.21 506.39 691.67 506.87C692.15 507.37 691.52 507.77 691.23 508.17C688.47 511.97 685.14 515.14 681.31 517.89C675.99 521.72 671.28 526.24 667.95 531.97C666.49 534.47 665.54 537.26 664.22 539.85C661.01 546.15 659.3 553 656.86 559.58C655.71 562.69 654.8 565.9 653.53 568.98V568.99Z" fill="#4D4143"/>
<path d="M731.18 545.32C730.47 546.61 729.2 546.16 728.23 546.04C724.73 545.61 721.17 546.02 717.7 545.3C716.51 545.05 715.27 544.87 714.49 543.76C714.88 542.01 716.37 541.06 717.64 540.25C719.54 539.04 720.77 537.27 721.79 535.52C723.91 531.91 726.38 528.47 727.98 524.56C728.84 522.46 730.03 520.66 731.84 519.14C734.78 516.68 736.93 513.31 740.83 511.28C739.95 513.78 738.34 515.46 737.14 517.34C734.03 522.24 730.97 527.14 728.84 532.58C726.96 537.38 727.2 541.65 731.17 545.31L731.18 545.32Z" fill="#4D4143"/>
<path d="M813.41 548.48C812.9 552.76 813.01 557.05 813.13 561.41C812.05 557.61 810.98 553.8 809.9 550C811.76 551.1 812.56 549.75 813.4 548.48H813.41Z" fill="#2C4859"/>
<path d="M491.98 565.58C491.63 566.59 491.05 567.19 489.85 567.11C489.16 567.06 488.46 567.33 487.76 567.45C486.78 559.1 483.4 551.84 478 545.44C473.58 540.2 469.28 534.85 466.72 528.36C466.28 527.23 465.24 525.8 465.92 524.94C466.65 524.01 468.2 524.9 469.34 525.2C481.15 528.27 487.73 536.74 488.23 548.9C488.43 553.72 488.23 558.59 489.46 563.43C489.67 561.19 489.88 558.95 490.1 556.72C490.63 551.41 491.42 546.18 494.65 541.69C498.18 536.78 503.07 534.18 508.97 533.33C510.29 533.14 510.75 533.63 510.34 534.98C508.9 539.63 506.32 543.62 503.36 547.42C500.3 551.34 496.89 555 494.27 559.25C493.06 561.2 492.24 563.29 491.99 565.59L491.98 565.58Z" fill="#67815E"/>
<path d="M486.28 567.4C485.76 568.34 484.93 568.7 483.89 568.64C481.86 565.69 478.66 564.29 475.69 562.63C469.95 559.41 464.3 556.04 458.94 552.21C458.68 552.02 458.45 551.79 458.19 551.6C456.93 550.68 457.09 549.95 458.53 549.53C464.83 547.65 470.68 547.89 475.89 552.61C480.5 556.78 483.46 562.02 486.27 567.41L486.28 567.4Z" fill="#67815E"/>
<path d="M700.06 10.74C700.77 7.19005 702.08 3.75005 702 0.0500488C704.24 0.0500488 706.49 0.0600488 708.73 0.0700488C706.56 5.83005 707.45 11.5201 709.17 17.18C709.5 18.2801 710.15 18.1101 710.97 17.7801C716.04 15.7001 720.66 12.93 724.61 9.07005C726.44 7.28005 727.86 5.16005 729.42 3.15005C729.65 3.37005 729.73 3.41005 729.73 3.45005C729.71 4.03005 729.71 4.61005 729.65 5.18005C729.01 11.65 730.38 17.6101 733.77 23.1901C736.04 26.92 738.81 30.2101 741.65 33.4901C742.9 34.93 743.62 34.6001 744.56 33.2701C747.24 29.4601 749.99 25.6901 751.92 21.43C754.99 14.64 758.29 7.90005 756.73 0.0700488C758.72 0.0700488 760.7 0.0700488 762.69 0.0700488C760.06 4.15005 759.25 8.80005 758.49 13.48C757.49 19.71 757.09 25.9401 757.99 32.2201C758.21 33.75 758.84 34.08 760.3 33.76C763.8 32.99 767.03 31.5 770.35 30.24C771.09 30.5301 771.15 31.17 771.17 31.84C771.35 40.43 772.59 48.94 772.93 57.5201C772.95 57.9901 773.03 58.4401 772.58 58.7401C772.04 59.1001 771.59 58.78 771.16 58.48C765.09 54.28 758.58 50.8601 751.96 47.64C748.3 45.8601 744.58 44.22 740.88 42.53C733.62 39.2001 726.18 36.3101 718.76 33.3801C717.72 32.9901 716.69 32.6001 715.65 32.2201C715.44 32.07 715.24 31.8701 715.01 31.7901C708.1 29.4701 705.5 23.4501 702.85 17.5301C701.85 15.3101 700.36 13.27 700.07 10.76L700.06 10.74Z" fill="#3E2B1E"/>
<path d="M770.35 30.22C767.03 31.48 763.8 32.9701 760.3 33.7401C758.83 34.0601 758.21 33.73 757.99 32.2001C757.1 25.92 757.49 19.69 758.49 13.46C759.24 8.78005 760.05 4.13005 762.69 0.0500488C776.37 0.0500488 790.04 0.0500488 803.72 0.0500488C803.88 0.870049 804.07 1.69005 804.2 2.51005C804.99 7.60005 805.83 12.67 804.91 17.85C804.31 21.23 803.05 24.41 802.22 27.72C801.2 29.44 800.09 31.1 799.19 32.8801C798.29 34.6501 797.39 34.35 796.16 33.25C791.37 29 787.91 23.8801 785.98 17.75C785.9 17.51 785.83 17.26 785.61 16.56C781.44 22.42 776.18 26.64 770.36 30.21L770.35 30.22Z" fill="#8A9557"/>
<path d="M756.73 0.0600488C758.29 7.89005 754.99 14.64 751.92 21.42C749.99 25.6901 747.24 29.46 744.56 33.26C743.62 34.59 742.9 34.93 741.65 33.48C738.81 30.2 736.04 26.9 733.77 23.18C730.38 17.6101 729 11.64 729.65 5.17005C729.71 4.60005 729.71 4.02005 729.73 3.44005C729.73 3.40005 729.65 3.36005 729.42 3.14005C727.86 5.16005 726.43 7.27005 724.61 9.06005C720.66 12.93 716.05 15.6901 710.97 17.7701C710.16 18.1 709.5 18.26 709.17 17.17C707.45 11.5 706.56 5.82005 708.73 0.0600488C724.73 0.0600488 740.73 0.0600488 756.73 0.0500488V0.0600488Z" fill="#8A9557"/>
<path d="M834.05 22.47C829.29 30.87 824.46 39.24 819.79 47.69C817.21 52.36 814.92 57.19 812.48 61.94C812.21 62.46 812.28 63.45 811.39 63.25C810.8 63.12 810.86 62.31 810.76 61.74C809.22 52.92 807.66 44.11 806.16 35.28C806 34.35 805.31 33.49 805.73 32.47C808.81 34.09 811.58 36.23 814.83 37.58C816.27 38.18 816.83 38.12 817.18 36.48C818.37 30.85 818.54 25.19 817.54 19.55C816.57 14.04 814.25 9.14003 810.53 4.87003C809.15 3.28003 807.35 2.02003 806.42 0.0300293C810.1 0.0400293 813.78 0.0600293 817.46 0.0700293C817.48 1.00003 817.94 1.80003 818.28 2.63003C821.6 10.78 826.76 17.47 834.05 22.47Z" fill="#3E2B1E"/>
<path d="M834.05 22.47C826.76 17.47 821.6 10.78 818.28 2.63C817.94 1.8 817.48 1.01 817.46 0.07C825.41 0.05 833.36 0.04 841.32 0C842.21 0 842.58 0.25 842.57 1.2C842.51 9.61 842.49 18.02 842.46 26.42C839.32 25.82 836.79 23.91 834.05 22.47Z" fill="#8A9557"/>
<path d="M806.42 0.0300293C807.35 2.01003 809.14 3.28003 810.53 4.87003C814.25 9.14003 816.57 14.04 817.54 19.55C818.54 25.19 818.37 30.85 817.18 36.48C816.83 38.12 816.27 38.18 814.83 37.58C811.58 36.23 808.81 34.08 805.73 32.47C804.56 30.89 803.39 29.31 802.21 27.72C803.04 24.41 804.3 21.23 804.9 17.85C805.83 12.67 804.98 7.59003 804.19 2.51003C804.06 1.68003 803.87 0.870029 803.71 0.0500293C804.61 0.0500293 805.51 0.0400293 806.41 0.0300293H806.42Z" fill="#67815E"/>
<path d="M671.84 0.0600586C669.4 4.78006 667.56 9.68006 667.39 15.0801C667.39 15.2501 667.21 15.4101 667.11 15.5701C666.44 16.9601 667.33 18.3301 667.15 19.7301C667.01 20.8301 666.76 21.5301 665.5 21.1101C658.96 18.9301 652.49 16.6001 646.82 12.5401C646.53 12.3301 646.36 11.9401 646.14 11.6401C651.7 10.9101 656.71 8.75006 661.31 5.63006C663.54 4.12006 665.79 2.59006 667.1 0.100059C668.68 0.0900586 670.25 0.0800586 671.83 0.0700586L671.84 0.0600586Z" fill="#3E2B1E"/>
<path d="M842.52 97.52C839.66 99.25 837.63 101.85 835.46 104.29C835.09 104.71 834.9 105.52 834.23 105.35C833.41 105.13 833.68 104.27 833.69 103.68C833.8 98.45 834.29 93.27 835.16 88.1C836.58 79.75 838.79 71.63 841.29 63.57C841.61 62.53 841.85 61.44 842.51 60.52C842.51 72.86 842.51 85.19 842.51 97.53L842.52 97.52Z" fill="#3E2B1E"/>
<path d="M667.12 0.0900391C665.81 2.58004 663.55 4.11004 661.33 5.62004C656.73 8.74004 651.72 10.9 646.16 11.63C645.84 11.63 645.52 11.58 645.21 11.63C643.41 11.89 642.76 11.05 643 9.35004C643.18 6.14004 644.03 3.07004 645.04 0.0400391C652.4 0.0600391 659.76 0.0700391 667.12 0.0900391Z" fill="#67815E"/>
<path d="M645.03 0.0400391C644.02 3.07004 643.17 6.13004 642.99 9.35004C642.6 9.72004 642.21 10.04 641.65 9.64004C637.68 6.84004 633.39 4.44004 630.13 0.730039C629.97 0.540039 629.89 0.280039 629.77 0.0500391C634.86 0.0500391 639.95 0.0500391 645.04 0.0500391L645.03 0.0400391Z" fill="#3E2B1E"/>
<path d="M725.76 62.15C727.88 67.62 730.77 72.64 734.06 77.51C738.33 83.84 743.62 89.1 749.5 93.86C750.07 94.32 750.6 94.76 751.37 94.74C751.37 96.29 751.37 97.85 751.37 99.4C744.47 94.29 738.03 88.75 732.82 81.8C728.07 75.46 724.7 68.5 722.07 61.11C721.81 60.38 721.42 59.71 721.09 59.01C720.57 55.3 719.21 51.78 718.59 48.11C717.68 42.79 715.87 37.65 715.64 32.21C716.68 32.6 717.71 32.99 718.75 33.37C720.35 41.35 722.19 49.28 724.15 57.18C724.57 58.87 725.22 60.5 725.76 62.15Z" fill="#4E485A"/>
<path d="M754.88 97.8301C757.78 99.0801 760.3 101 762.88 102.76C764.51 103.87 766.2 104.66 768.05 105.22C768.6 106.77 769.5 108.21 769.6 109.91C764.95 108.35 760.83 105.83 756.9 102.95C756.26 102.48 755.57 102.55 754.88 102.52C754.88 100.96 754.88 99.4001 754.88 97.8401V97.8301Z" fill="#4E485A"/>
<path d="M660.88 32.63C663.7 42.64 658.33 53.73 648.77 57.75C647.67 58.21 647.26 57.82 646.87 56.91C642.56 46.92 644.51 36.47 653.58 29.48C654.09 29.09 654.61 28.7 655.12 28.31C656.57 27.69 657.67 28.12 658.54 29.4C659.28 30.5 660.09 31.55 660.87 32.63H660.88Z" fill="#67815E"/>
<path d="M629.8 26.7201C628.42 29.9501 626.46 32.8401 624.38 35.6501C623.9 34.7401 624.08 33.7501 624.07 32.7901C624.01 25.6601 625.06 18.6401 626.03 11.6101C626.17 10.6201 626.47 10.6001 627.25 11.1401C629.01 12.3401 630.06 13.6901 629.89 16.0601C629.64 19.6001 629.81 23.1601 629.8 26.7201Z" fill="#67815E"/>
<path d="M686.51 41.9401C686.13 41.8101 685.75 41.6801 685.37 41.5501C685.95 41.0901 686.32 41.2401 686.51 41.9401Z" fill="#2C4859"/>
<path d="M574.72 461.46C577.38 462.7 579.77 464.46 582.54 465.48C583.04 465.75 583.54 466.02 584.04 466.29C584.31 466.75 584.74 466.87 585.24 466.85L585.22 466.82C586.19 467.81 587.39 468.13 588.73 468H588.7C589.02 468.38 589.44 468.45 589.9 468.37H589.87C592.12 469.58 594.58 469.89 597.09 469.94L597.14 469.89C597.69 470.41 598.42 470.53 599.11 470.6C602.29 470.95 605.48 471.38 608.68 471.49C613.11 471.64 617.55 471.52 621.99 471.53C622.8 471.53 623.71 471.32 624.17 472.33L624.11 472.28C623.54 472.93 623.53 473.58 624.11 474.23C625.09 476.17 626.54 477.44 628.85 477.14C630.8 476.88 632.55 477.36 634.24 478.25C636.69 479.54 639.29 479.66 641.96 479.19C642.57 479.08 643.18 478.68 643.82 479.07C644.53 478.85 645.41 478.96 645.8 478.09L645.76 478.12C646.21 478.11 646.65 478.09 646.97 477.71H646.91C649.53 476.88 652.16 477.94 654.78 477.69C655.82 478.48 657.05 478.46 658.27 478.53C661.43 478.7 664.58 478.51 667.69 478.08C670.64 477.67 673.72 477.63 676.45 476.14C676.99 476.18 677.55 476.32 677.93 475.77C678.51 475.81 679.1 475.93 679.52 475.35C680.93 475.6 682.18 475.01 683.44 474.57C684.83 474.08 686.17 473.43 687.7 473.49C687.96 473.62 688.21 473.75 688.47 473.88C689.15 474.83 690.13 475.04 691.21 475.02C691.77 475.99 692.7 475.75 693.56 475.77C693.96 476.28 694.52 476.16 695.05 476.18C695.51 476.64 696.08 476.58 696.65 476.55C697.83 477.34 699.18 477.36 700.53 477.36C704.03 477.36 707.53 477.34 711.04 477.33H711.01C711.34 477.46 711.68 477.6 712.01 477.73L712.06 477.68C712.36 477.83 712.67 477.97 712.97 478.12L712.94 478.1C713.21 478.23 713.48 478.37 713.75 478.5L713.72 478.48C714.02 478.9 714.47 478.89 714.92 478.88L714.88 478.86C715.19 479.27 715.62 479.29 716.08 479.26H716.05C718.84 480.76 721.73 480.12 724.62 479.7L724.7 479.62C724.7 479.62 724.8 479.66 724.81 479.66C726.88 479.62 729.06 480.1 730.81 478.47L730.77 478.51C730.92 478.37 731.06 478.23 731.21 478.09L731.16 478.11C732.19 478.13 733.21 478.26 734.23 478.36C737.24 478.64 740.21 479.32 743.25 479.18C744.33 479.23 745.42 479.29 746.5 479.34C746.73 479.44 746.96 479.61 747.2 479.62C753 479.83 758.8 479.7 764.58 479.11C766.27 478.94 768.06 478.91 769.64 478.08L769.59 478.09C771.3 478.02 773.01 477.95 774.48 476.9L774.45 476.93C774.94 476.89 775.46 476.94 775.84 476.53H775.8C776.37 476.56 776.95 476.62 777.4 476.13H777.36C778.12 476.15 778.85 476.05 779.33 475.36H779.31C779.76 475.39 780.2 475.4 780.5 474.97L780.47 474.99C780.8 474.97 781.09 474.89 781.28 474.59H781.26C782.05 474.66 782.8 474.62 783.21 473.77V473.82C783.47 473.69 783.74 473.55 784.01 473.42L783.97 473.44C784.24 473.3 784.51 473.17 784.78 473.03L784.74 473.05C785.13 473.02 785.36 472.77 785.55 472.47C785.48 472.44 785.44 472.39 785.41 472.33C785.5 472.33 785.57 472.3 785.62 472.23C786.01 472.01 786.4 471.8 786.79 471.58L786.73 471.6C787.95 471.23 788.93 470.46 789.91 469.7V469.69C791.17 468.91 792.35 468.04 793.38 466.97C793.38 466.97 793.44 466.92 793.43 466.92C793.7 466.69 793.97 466.45 794.24 466.22C794.37 466.12 794.49 466.01 794.62 465.91C794.8 465.72 794.98 465.54 795.16 465.35C795.24 465.35 795.28 465.3 795.3 465.23C795.4 465.14 795.49 465.06 795.59 464.97L795.71 464.85C795.84 464.82 795.92 464.74 795.95 464.61C796.03 464.59 796.08 464.53 796.1 464.45C796.22 464.44 796.33 464.45 796.45 464.45C799.72 465.39 803 466.29 806.26 467.28C807.87 467.77 809.42 468.45 810.68 469.62C812.28 471.11 812.29 472.11 810.77 473.72C808.98 475.61 806.64 476.58 804.29 477.49C797.08 480.28 789.49 481.61 781.97 483.16C769.3 485.77 756.46 486.29 743.6 485.83C730.76 485.37 717.93 484.58 705.07 484.75C698.48 484.83 691.9 485.07 685.31 485.09C674.78 485.11 664.29 484.33 653.79 483.62C646.32 483.11 638.85 482.63 631.4 482C626.71 481.6 621.99 481.54 617.36 480.5C615.95 480.19 614.5 479.82 613.5 478.82C612.15 477.49 610.61 477.42 608.89 477.34C602.25 477.05 595.63 476.54 589 475.98C583.71 475.53 578.49 474.72 573.28 473.84C570.21 473.32 567.28 472.26 564.51 470.84C563.33 470.24 562.24 469.39 562.1 467.99C561.95 466.44 563.25 465.78 564.36 465.12C566.91 463.6 569.81 463.15 572.65 462.56C573.44 462.4 574.38 462.47 574.75 461.46H574.72Z" fill="#6D637B"/>
<path d="M565.43 452.53C566.13 453.4 566.84 454.27 567.54 455.14C566.77 454.32 565.86 453.61 565.43 452.53Z" fill="#4E485A"/>
<path d="M564.67 451.46C565.05 451.69 565.27 452.04 565.39 452.46C565.15 452.13 564.91 451.79 564.67 451.46Z" fill="#4E485A"/>
<path d="M563.84 450.14C563.93 450.23 564.02 450.32 564.11 450.41C564.05 450.29 563.96 450.2 563.84 450.14Z" fill="#4E485A"/>
<path d="M769.63 478.1C768.04 478.93 766.26 478.95 764.57 479.13C758.8 479.72 753 479.84 747.19 479.64C746.95 479.64 746.72 479.46 746.49 479.36C746.68 479.33 746.87 479.27 747.06 479.27C754.62 479.53 762.13 478.93 769.63 478.1Z" fill="#4D4143"/>
<path d="M731.15 478.12C731.34 477.98 731.52 477.83 731.71 477.69C735.09 478.02 738.48 478.34 741.86 478.69C742.34 478.74 742.91 478.68 743.25 479.19C740.21 479.32 737.24 478.64 734.23 478.37C733.21 478.28 732.19 478.15 731.16 478.12H731.15Z" fill="#4D4143"/>
<path d="M774.48 476.92C773.01 477.97 771.3 478.04 769.59 478.11C770.12 476.55 771.79 478.11 772.5 477.05C773.16 477.01 773.82 476.96 774.48 476.92Z" fill="#4D4143"/>
<path d="M775.81 476.16C777.22 475.19 778.83 474.84 780.48 474.61L780.49 474.63C780.45 474.75 780.44 474.87 780.45 475L780.48 474.98C780.02 474.93 779.59 474.96 779.29 475.38L779.31 475.37C778.56 475.39 777.86 475.55 777.34 476.16L777.38 476.15C776.86 476.16 776.34 476.18 775.82 476.19L775.8 476.17L775.81 476.16Z" fill="#F8B977"/>
<path d="M789.9 469.7C788.91 470.46 787.94 471.23 786.72 471.6C787.61 470.68 788.59 469.91 789.9 469.7Z" fill="#F8B977"/>
<path d="M774.48 476.92C773.82 476.97 773.16 477.01 772.5 477.05C773.53 476.47 774.66 476.26 775.82 476.17L775.84 476.19C775.83 476.31 775.81 476.43 775.8 476.56H775.84C775.33 476.53 774.82 476.53 774.45 476.96L774.48 476.93V476.92Z" fill="#F8B977"/>
<path d="M781.36 474.29C781.31 474.4 781.27 474.5 781.24 474.62L781.26 474.61C781 474.61 780.74 474.63 780.49 474.64L780.48 474.62C780.77 474.51 781.06 474.4 781.36 474.29Z" fill="#F8B977"/>
<path d="M782.27 473.86C782.02 474.21 781.65 474.28 781.25 474.31C781.59 474.16 781.93 474.01 782.27 473.86Z" fill="#F8B977"/>
<path d="M676.43 476.13C673.7 477.62 670.63 477.66 667.67 478.07C664.56 478.5 661.41 478.69 658.25 478.52C657.03 478.46 655.81 478.47 654.76 477.69L654.85 477.62C655.49 477.65 656.12 477.68 656.76 477.7C661.29 477.88 665.81 478.04 670.27 476.99L670.22 477.04C672.31 477.02 674.27 476.2 676.33 476.01L676.42 476.13H676.43Z" fill="#4E485A"/>
<path d="M709.26 476.45C709.98 476.46 710.63 476.62 711.02 477.32C707.52 477.33 704.02 477.35 700.51 477.35C699.17 477.35 697.82 477.33 696.63 476.54C696.63 476.54 696.71 476.43 696.71 476.44C700.89 476.89 705.07 477.38 709.25 476.46L709.26 476.45Z" fill="#4E485A"/>
<path d="M646.89 477.72C646.89 477.6 646.9 477.48 646.94 477.37C647.27 477.35 647.58 477.31 647.77 476.98L647.71 477.04C650.18 476.21 652.49 477.25 654.86 477.63L654.77 477.7C652.15 477.94 649.52 476.89 646.9 477.73L646.89 477.72Z" fill="#4D4143"/>
<path d="M716.04 479.26C718.88 479.71 721.75 479.7 724.61 479.71C721.72 480.13 718.82 480.77 716.04 479.26Z" fill="#4D4143"/>
<path d="M725.78 478.98C727.56 479.85 729.12 478.56 730.8 478.48C729.04 480.11 726.87 479.63 724.8 479.67C724.92 479.54 725.04 479.4 725.15 479.27C725.43 479.34 725.65 479.24 725.78 478.98Z" fill="#4D4143"/>
<path d="M691.2 475.01C690.12 475.03 689.14 474.81 688.46 473.87H688.48C689.46 474.07 690.38 474.42 691.21 475V475.02L691.2 475.01Z" fill="#4D4143"/>
<path d="M693.55 475.76C692.69 475.75 691.76 475.98 691.2 475.01V474.99C692.04 475.06 692.82 475.32 693.55 475.73V475.75V475.76Z" fill="#4D4143"/>
<path d="M643.8 479.07C644.23 478.27 645.06 478.29 645.78 478.09C645.39 478.96 644.52 478.86 643.8 479.07Z" fill="#4D4143"/>
<path d="M777.35 476.16C777.87 475.55 778.57 475.4 779.32 475.37C778.83 476.06 778.11 476.16 777.35 476.16Z" fill="#4D4143"/>
<path d="M679.5 475.34C679.08 475.91 678.49 475.8 677.91 475.76L677.82 475.67C678.32 475.3 678.91 475.32 679.49 475.31L679.51 475.34H679.5Z" fill="#4D4143"/>
<path d="M775.8 476.56C775.81 476.44 775.82 476.31 775.84 476.19C776.36 476.18 776.88 476.16 777.4 476.15C776.96 476.64 776.38 476.58 775.8 476.56Z" fill="#4D4143"/>
<path d="M696.64 476.54C696.07 476.57 695.49 476.62 695.04 476.17L695.06 476.15C695.64 476.1 696.21 476.14 696.73 476.44L696.65 476.55L696.64 476.54Z" fill="#4E485A"/>
<path d="M695.04 476.17C694.51 476.15 693.94 476.27 693.55 475.76V475.74C694.08 475.77 694.61 475.77 695.05 476.15L695.03 476.17H695.04Z" fill="#4D4143"/>
<path d="M677.91 475.76C677.52 476.31 676.96 476.17 676.43 476.13L676.34 476.01C676.83 475.89 677.33 475.78 677.82 475.66L677.91 475.75V475.76Z" fill="#4E485A"/>
<path d="M774.45 476.95C774.83 476.52 775.33 476.52 775.84 476.55C775.46 476.97 774.94 476.91 774.45 476.95Z" fill="#4D4143"/>
<path d="M645.74 478.12C646.08 477.79 646.49 477.68 646.95 477.71C646.63 478.1 646.19 478.11 645.74 478.12Z" fill="#4D4143"/>
<path d="M779.3 475.39C779.6 474.97 780.03 474.93 780.49 474.99C780.19 475.42 779.75 475.41 779.3 475.39Z" fill="#4D4143"/>
<path d="M713.71 478.48C714.17 478.42 714.59 478.49 714.91 478.88C714.47 478.88 714.01 478.9 713.71 478.48Z" fill="#4E485A"/>
<path d="M714.87 478.87C715.31 478.87 715.78 478.81 716.07 479.27C715.62 479.3 715.18 479.28 714.87 478.87Z" fill="#4E485A"/>
<path d="M585.18 466.51C585.2 466.63 585.22 466.74 585.24 466.85C584.75 466.86 584.32 466.74 584.04 466.29C584.42 466.36 584.8 466.44 585.18 466.51Z" fill="#4D4143"/>
<path d="M712.93 478.1C713.25 478.13 713.59 478.13 713.74 478.5C713.47 478.37 713.2 478.23 712.93 478.1Z" fill="#4E485A"/>
<path d="M711 477.31C711.41 477.26 711.75 477.37 712 477.72C711.67 477.58 711.33 477.45 711 477.31Z" fill="#4E485A"/>
<path d="M780.49 474.63C780.75 474.63 781.01 474.61 781.26 474.6C781.07 474.9 780.78 474.98 780.45 475C780.44 474.87 780.45 474.75 780.49 474.63Z" fill="#4D4143"/>
<path d="M730.76 478.52C730.75 478.22 730.96 478.15 731.19 478.1C731.05 478.24 730.9 478.38 730.76 478.52Z" fill="#4D4143"/>
<path d="M654.86 477.62C652.49 477.24 650.17 476.21 647.71 477.03C648.52 475.98 649.67 476.09 650.72 476.31C656.24 477.5 661.79 477.71 667.39 477.03C668.34 476.91 669.32 476.99 670.28 476.98C665.82 478.03 661.29 477.86 656.77 477.69C656.13 477.67 655.5 477.64 654.86 477.61V477.62Z" fill="#F8B977"/>
<path d="M677.82 475.67C677.33 475.79 676.83 475.9 676.34 476.02C674.28 476.21 672.32 477.03 670.23 477.05C674.04 475.73 677.98 474.98 681.94 474.27C681.13 474.62 680.31 474.96 679.49 475.31C678.91 475.31 678.32 475.29 677.82 475.67Z" fill="#F8B977"/>
<path d="M683.08 473.86C682.78 474.29 682.3 474.24 681.87 474.3C682.27 474.15 682.68 474.01 683.08 473.86Z" fill="#F8B977"/>
<path d="M647.77 476.97C647.59 477.3 647.27 477.34 646.94 477.36C647.22 477.23 647.49 477.1 647.77 476.97Z" fill="#F8B977"/>
<path d="M639.15 485.25L773.45 479.54C792.75 476.92 823.44 457.41 820.82 438.11C818.2 418.81 783.27 407.02 763.97 409.63L629.67 427.84L639.15 485.25Z" fill="#F3951E" stroke="#C56C15" stroke-width="2" stroke-miterlimit="10" stroke-linecap="round"/>
<path d="M673.01 481.72C672.78 481.02 673.14 480.46 673.43 479.89C676.42 474.14 678.64 468.07 680.65 461.94C681.31 459.94 682.39 459.45 684.21 459.67C688.59 460.19 692.53 461.93 696.31 464.09C702.93 467.88 708.9 472.68 715.45 476.56C718.72 478.5 722.02 480.38 725.49 481.96C727.17 482.75 728.84 483.58 730.55 484.33C734.89 486.25 735.53 490.41 731.95 493.51C730.37 493.04 728.94 492.39 728.15 490.77C727.77 489.99 726.93 489.82 726.17 489.73C719.5 488.97 713.33 486.41 706.98 484.46C705.77 484.09 704.53 483.75 703.18 483.94C703.34 485.06 704.17 485.35 704.93 485.64C711.02 487.95 717.07 490.39 723.56 491.4C724 491.47 724.59 491.51 724.82 491.79C726.46 493.85 729.11 494.06 731.16 495.34C731.22 495.44 731.26 495.55 731.28 495.66C731.11 495.83 730.95 495.99 730.78 496.16L730.82 496.13C730.59 496.21 730.39 496.3 730.44 496.6L730.47 496.56C728.82 496.87 727.44 498.34 725.56 497.71C722.56 495.2 718.95 493.87 715.38 492.45C714.94 492.28 714.35 491.8 714.01 492.41C713.65 493.05 714.24 493.5 714.74 493.78C717.2 495.18 719.67 496.56 722.15 497.92C723.05 498.41 724.02 498.3 724.98 498.09L724.68 498.53L724.57 498.5L724.5 498.59C721.66 498.95 718.82 499.33 715.94 499.25H715.97C715.62 498.83 715.17 498.96 714.73 499.01L714.77 499.02C714.41 498.67 713.98 498.66 713.53 498.77L713.56 498.78C713.36 498.43 713.02 498.48 712.7 498.49L712.74 498.51C712.42 498.4 712.1 498.3 711.78 498.19L711.73 498.24C711.44 497.93 711.09 497.86 710.69 497.96H710.72C710.24 497.32 709.58 497.25 708.86 497.33C708.22 495.98 706.76 496.05 705.66 495.5C700.25 493.04 694.97 490.3 689.98 487.1C684.74 483.75 679 482.46 673.01 481.7V481.72Z" fill="#F8B977"/>
<path d="M731.16 495.35C729.11 494.06 726.46 493.86 724.82 491.8C724.59 491.51 724 491.48 723.56 491.41C717.07 490.4 711.02 487.96 704.93 485.65C704.18 485.36 703.35 485.07 703.18 483.95C704.53 483.76 705.77 484.1 706.98 484.47C713.32 486.42 719.49 488.99 726.17 489.74C726.93 489.83 727.77 490 728.15 490.78C728.93 492.4 730.36 493.05 731.95 493.52C731.69 494.13 731.42 494.74 731.16 495.35Z" fill="#C56C15"/>
<path d="M725.57 497.72C725.47 498 725.27 498.12 724.98 498.09C724.02 498.31 723.05 498.41 722.15 497.92C719.67 496.56 717.2 495.18 714.74 493.78C714.24 493.5 713.65 493.06 714.01 492.41C714.36 491.8 714.94 492.28 715.38 492.45C718.95 493.87 722.56 495.2 725.56 497.71L725.57 497.72Z" fill="#C56C15"/>
<path d="M581.21 246.96C582.33 248.67 582.61 250.69 583.35 252.55C587.35 262.66 593.17 271.57 600.83 279.29C601.15 279.61 601.43 279.96 601.73 280.3C561.1 280.3 520.48 280.32 479.85 280.33C464.58 280.33 449.31 280.33 434.05 280.33C433.6 280.33 433.14 280.35 432.69 280.33C432.13 280.29 431.41 280.51 431.14 279.84C430.85 279.15 431.33 278.57 431.79 278.13C433.71 276.3 435.78 274.66 438.17 273.44C445.66 269.61 453.74 268.45 461.91 269.24C466.2 269.65 468.09 268.59 470.12 264.79C473.22 259 478.74 255.99 485.36 255.05C491.51 254.18 497.15 255.46 502.51 258.4C503.84 259.13 504.66 258.89 504.99 257.28C507.52 245.08 521.45 237.09 533.77 238.92C540.53 239.93 545.77 242.96 550.28 247.75C551.55 249.09 552.45 249.55 554.32 248.25C560.6 243.87 567.55 242.25 575.11 244.36C576.35 244.71 577.64 244.67 578.89 245.12C579.95 245.5 580.66 246.07 581.21 246.97V246.96Z" fill="#533928"/>
<path d="M630.7 299.34H708.82L734.86 330.03V386.69L710.55 453.51H618.81L630.39 383.66L630.7 299.34Z" fill="#F3951E"/>
<path d="M698.95 412.71C699.73 412.2 700.53 412.32 701.36 412.58C704.1 413.42 706.68 414.58 709 416.28C711.24 417.92 713.49 419.54 715.73 421.17C711.6 425.75 706.59 429.02 700.86 431.22C700.57 431.33 700.31 431.53 700.03 431.69C694.16 433.5 688.26 435.15 682.19 436.14C679.13 436.64 676.04 436.95 672.98 437.45C670.94 437.78 669.26 436.57 667.36 436.31C663.22 435.74 659.11 434.99 654.73 434.27C658.42 432.14 662.12 431.05 666.08 430.91C672.07 430.7 676.93 427.84 681.53 424.37C682.28 423.8 682.19 423.24 681.29 423.02C680.55 422.84 679.75 422.81 678.99 422.82C674.65 422.89 670.34 422.56 666.04 421.98C664.33 421.75 663.15 420.87 662.8 419.12C662.5 417.58 663.35 416.69 664.66 416.12C669.66 415.62 674.65 415.1 679.65 414.62C684.65 414.14 689.66 413.27 694.66 414.35C696.59 414.77 697.91 414.33 698.94 412.73L698.95 412.71Z" fill="#F8B977"/>
<path d="M660.57 292.04C700.357 292.04 732.61 259.787 732.61 220C732.61 180.213 700.357 147.96 660.57 147.96C620.784 147.96 588.53 180.213 588.53 220C588.53 259.787 620.784 292.04 660.57 292.04Z" fill="#533928"/>
<path d="M660.57 279.63C693.503 279.63 720.2 252.933 720.2 220C720.2 187.067 693.503 160.37 660.57 160.37C627.637 160.37 600.94 187.067 600.94 220C600.94 252.933 627.637 279.63 660.57 279.63Z" fill="#FFE699"/>
<path d="M679.6 268.89V284.51H651.4V278.63C653.74 279.34 656.23 279.73 658.81 279.73C667.41 279.73 675.02 275.44 679.6 268.89Z" fill="#F8B977"/>
<path d="M679.6 256.31V268.89C675.02 275.44 667.41 279.73 658.81 279.73C656.23 279.73 653.74 279.34 651.4 278.63V256.31H679.6Z" fill="#C56C15"/>
<path d="M660.39 206.95C670.375 206.95 678.47 198.855 678.47 188.87C678.47 178.885 670.375 170.79 660.39 170.79C650.405 170.79 642.31 178.885 642.31 188.87C642.31 198.855 650.405 206.95 660.39 206.95Z" fill="#3E2B1E"/>
<path d="M697.48 218.02C697.48 236.89 680.33 248.19 659.17 248.19C638.01 248.19 620.86 236.89 620.86 218.02C620.86 199.15 638.01 187.3 659.17 187.3C680.33 187.3 697.48 199.15 697.48 218.02Z" fill="#3E2B1E"/>
<path d="M626.36 209.98H680.33V246.9C680.33 261.79 668.24 273.89 653.34 273.89C638.45 273.89 626.35 261.8 626.35 246.9V209.98H626.36Z" fill="#F8B977"/>
<path d="M685.59 225.82C685.86 225.82 686.13 225.84 686.4 225.88C690.88 226.54 693.15 233.18 690.89 238.14L690.27 239.49C688.94 242.4 688.94 246 690.27 248.91L690.89 250.26C693.15 255.22 690.88 261.86 686.4 262.52C686.14 262.56 685.87 262.58 685.59 262.58C681.77 262.58 678.68 258.64 678.68 253.79V234.6C678.68 229.75 681.77 225.81 685.59 225.81V225.82Z" fill="#F8B977"/>
<path d="M626 234.54C626 234.54 624.92 211.13 642.73 218.85C656.73 224.92 659.03 212.67 670.03 219.36C676.26 223.15 676.52 233.12 676.52 233.12L685.23 222.92L682.22 204.25L623.36 207.43V219.99L625.99 234.53L626 234.54Z" fill="#3E2B1E"/>
<path d="M633.46 233.57C633.46 231.88 634.83 230.51 636.52 230.51C638.21 230.51 639.58 231.88 639.58 233.57" fill="#4D4143"/>
<path d="M656.07 233.57C656.07 231.88 657.44 230.51 659.13 230.51C660.82 230.51 662.19 231.88 662.19 233.57" fill="#4D4143"/>
<path d="M647.58 235.48C647.17 236.55 636.6 260.43 649.55 255.82" stroke="#4D4143" stroke-miterlimit="10"/>
<path d="M636.53 243.79C638.22 243.79 639.59 242.42 639.59 240.73C639.59 239.04 638.22 237.67 636.53 237.67C634.84 237.67 633.47 239.04 633.47 240.73C633.47 242.42 634.84 243.79 636.53 243.79Z" fill="#4D4143"/>
<path d="M659.17 243.79C660.86 243.79 662.23 242.42 662.23 240.73C662.23 239.04 660.86 237.67 659.17 237.67C657.48 237.67 656.11 239.04 656.11 240.73C656.11 242.42 657.48 243.79 659.17 243.79Z" fill="#4D4143"/>
<path d="M651.4 284.51H698.03C708.68 284.51 719.1 287.68 727.94 293.62C736.83 299.59 743.31 308.52 746.22 318.83C756.28 354.42 764.86 446.32 720.19 424.92C654.29 393.35 731.91 398.82 724.19 332.26" fill="#F3951E"/>
<path d="M651.4 284.51H698.03C708.68 284.51 719.1 287.68 727.94 293.62C736.83 299.59 743.31 308.52 746.22 318.83C756.28 354.42 764.86 446.32 720.19 424.92C654.29 393.35 731.91 398.82 724.19 332.26" stroke="#C56C15" stroke-width="2" stroke-miterlimit="10" stroke-linecap="round"/>
<path d="M687.04 497.74L575.9 479.53C556.6 476.91 525.91 457.4 528.53 438.1C529.71 429.41 537.43 422.25 547.32 417.23C563.16 409.2 581.69 408.33 598.46 414.19L696.52 448.44L687.04 497.73V497.74Z" fill="#F3951E" stroke="#C56C15" stroke-width="2" stroke-miterlimit="10" stroke-linecap="round"/>
<path d="M660.54 437.99C654.36 436.76 648 436.48 641.97 434.46C641.24 434.22 640.01 434.19 640.28 433.03C640.51 432.06 641.61 432.13 642.43 432.24C644.09 432.48 645.76 432.62 647.44 432.67C650.91 432.78 653.8 431.77 655.63 428.61C655.96 426.94 655.25 426.15 653.58 425.81C647.63 424.59 641.66 423.57 635.6 423.28C634.31 423.22 633.59 422.74 633.17 421.54L624.17 412.68L614.69 387.87L631.19 355.27L652.12 280.71L621.09 295.32C615.14 298.12 610.66 303.32 608.76 309.61L590.73 379.47C588.68 386.26 589.24 389.32 593.54 394.95L616.49 431.68L623.75 438.99C627.31 441.86 631.68 442.98 635.83 444.58C637.03 445.05 638.3 445.35 639.39 446.06C642.47 446.71 645.3 446.14 648.1 444.67C652.1 442.57 656.63 442.89 660.96 442.3C663.53 441.95 665.73 440.84 667.89 438.96C665.32 438.2 662.86 438.46 660.52 437.99H660.54Z" fill="#F8B977"/>
<path d="M678.46 272.8L692.66 284.5C692.66 284.5 687.56 349.02 620.71 349.02L649.55 283.4L670.62 280.69L678.46 272.79V272.8Z" fill="#F8B977"/>
<path d="M633.98 347.92C633.98 347.92 631.63 336.03 633.98 322.47" stroke="#C56C15" stroke-width="2" stroke-miterlimit="10" stroke-linecap="round"/>
</g>
<defs>
<clipPath id="clip0_48_1874">
<rect width="842.6" height="596.6" fill="white"/>
</clipPath>
</defs>
</svg>
